<mxfile host="app.diagrams.net" modified="2024-06-03T21:08:25.602Z" agent="Mozilla/5.0 (Windows NT 10.0; Win64; x64) AppleWebKit/537.36 (KHTML, like Gecko) Chrome/125.0.0.0 Safari/537.36" etag="LlIrf_Qlu0XvBAcVmkgI" version="24.4.10" type="device">
  <diagram name="Page-1" id="g6KgOgzeBe6-UVzCbmJh">
    <mxGraphModel dx="6550" dy="1670" grid="0" gridSize="10" guides="1" tooltips="1" connect="1" arrows="1" fold="1" page="0" pageScale="1" pageWidth="850" pageHeight="1100" math="0" shadow="0">
      <root>
        <mxCell id="0" />
        <mxCell id="1" parent="0" />
        <mxCell id="9h_zaofMqlGME5cnehlP-29" value="" style="group" parent="1" vertex="1" connectable="0">
          <mxGeometry x="-1136" y="1377" width="351.5" height="723" as="geometry" />
        </mxCell>
        <mxCell id="9h_zaofMqlGME5cnehlP-24" value="" style="rounded=0;whiteSpace=wrap;html=1;" parent="9h_zaofMqlGME5cnehlP-29" vertex="1">
          <mxGeometry x="0.5" y="91.39044943820224" width="351" height="631.6095505617977" as="geometry" />
        </mxCell>
        <mxCell id="9h_zaofMqlGME5cnehlP-25" value="&lt;font style=&quot;font-size: 36px;&quot;&gt;FINANCE&lt;/font&gt;" style="text;html=1;align=center;verticalAlign=middle;resizable=0;points=[];autosize=1;strokeColor=none;fillColor=none;" parent="9h_zaofMqlGME5cnehlP-29" vertex="1">
          <mxGeometry x="81" width="176" height="55" as="geometry" />
        </mxCell>
        <mxCell id="9h_zaofMqlGME5cnehlP-21" value="" style="rounded=0;whiteSpace=wrap;html=1;" parent="1" vertex="1">
          <mxGeometry x="-501" y="2062" width="538" height="492" as="geometry" />
        </mxCell>
        <mxCell id="9h_zaofMqlGME5cnehlP-18" value="" style="rounded=0;whiteSpace=wrap;html=1;" parent="1" vertex="1">
          <mxGeometry x="-499" y="1145" width="536" height="876" as="geometry" />
        </mxCell>
        <mxCell id="B-XN8NcxJWXxhH18cWWU-5" value="ENROLLMENT" style="swimlane;childLayout=stackLayout;horizontal=1;startSize=50;horizontalStack=0;rounded=1;fontSize=14;fontStyle=0;strokeWidth=2;resizeParent=0;resizeLast=1;shadow=0;dashed=0;align=center;arcSize=4;whiteSpace=wrap;html=1;" parent="1" vertex="1">
          <mxGeometry x="-743" y="242" width="160" height="145" as="geometry" />
        </mxCell>
        <mxCell id="B-XN8NcxJWXxhH18cWWU-6" value="&lt;div&gt;&lt;b&gt;+ imma_id (sk)&lt;/b&gt;&lt;/div&gt;&lt;div&gt;&lt;b style=&quot;background-color: initial;&quot;&gt;+ dept_id (sk)&lt;/b&gt;&lt;br&gt;&lt;/div&gt;&lt;div&gt;&lt;b&gt;+ course_id (sk)&lt;/b&gt;&lt;b style=&quot;background-color: initial;&quot;&gt;&lt;br&gt;&lt;/b&gt;&lt;/div&gt;&lt;div&gt;+ imma_date&lt;/div&gt;&lt;div&gt;+ imma_status&lt;/div&gt;" style="align=left;strokeColor=none;fillColor=none;spacingLeft=4;fontSize=12;verticalAlign=top;resizable=0;rotatable=0;part=1;html=1;" parent="B-XN8NcxJWXxhH18cWWU-5" vertex="1">
          <mxGeometry y="50" width="160" height="95" as="geometry" />
        </mxCell>
        <mxCell id="8DsD0onc5YV-Hyf4_pQ_-23" style="edgeStyle=orthogonalEdgeStyle;rounded=0;orthogonalLoop=1;jettySize=auto;html=1;exitX=0.5;exitY=0;exitDx=0;exitDy=0;entryX=0;entryY=0.25;entryDx=0;entryDy=0;" parent="1" source="B-XN8NcxJWXxhH18cWWU-7" target="8DsD0onc5YV-Hyf4_pQ_-9" edge="1">
          <mxGeometry relative="1" as="geometry" />
        </mxCell>
        <mxCell id="B-XN8NcxJWXxhH18cWWU-7" value="STUDENT" style="swimlane;childLayout=stackLayout;horizontal=1;startSize=50;horizontalStack=0;rounded=1;fontSize=14;fontStyle=0;strokeWidth=2;resizeParent=0;resizeLast=1;shadow=0;dashed=0;align=center;arcSize=4;whiteSpace=wrap;html=1;" parent="1" vertex="1">
          <mxGeometry x="-1024" y="8" width="160" height="230" as="geometry" />
        </mxCell>
        <mxCell id="B-XN8NcxJWXxhH18cWWU-8" value="&lt;div&gt;&lt;b style=&quot;background-color: initial;&quot;&gt;+ imma_id (pk)&lt;/b&gt;&lt;/div&gt;&lt;div&gt;+ user_id&lt;/div&gt;&lt;div&gt;+ pswd&lt;/div&gt;&lt;div&gt;+ first name&lt;/div&gt;&lt;div&gt;+ last name&lt;/div&gt;&lt;div&gt;+ contact&lt;/div&gt;&lt;div&gt;+ email&lt;/div&gt;&lt;div&gt;+ dob&lt;/div&gt;&lt;div&gt;+ home_address&lt;/div&gt;&lt;div&gt;+ grade_xii&lt;/div&gt;&lt;div&gt;+ international_student&lt;/div&gt;" style="align=left;strokeColor=none;fillColor=none;spacingLeft=4;fontSize=12;verticalAlign=top;resizable=0;rotatable=0;part=1;html=1;" parent="B-XN8NcxJWXxhH18cWWU-7" vertex="1">
          <mxGeometry y="50" width="160" height="180" as="geometry" />
        </mxCell>
        <mxCell id="8DsD0onc5YV-Hyf4_pQ_-14" style="edgeStyle=orthogonalEdgeStyle;rounded=0;orthogonalLoop=1;jettySize=auto;html=1;exitX=0.25;exitY=0;exitDx=0;exitDy=0;entryX=1;entryY=0.25;entryDx=0;entryDy=0;" parent="1" source="B-XN8NcxJWXxhH18cWWU-9" target="8DsD0onc5YV-Hyf4_pQ_-3" edge="1">
          <mxGeometry relative="1" as="geometry" />
        </mxCell>
        <mxCell id="8DsD0onc5YV-Hyf4_pQ_-24" style="edgeStyle=orthogonalEdgeStyle;rounded=0;orthogonalLoop=1;jettySize=auto;html=1;exitX=0.75;exitY=0;exitDx=0;exitDy=0;entryX=1;entryY=0.25;entryDx=0;entryDy=0;" parent="1" source="B-XN8NcxJWXxhH18cWWU-9" target="8DsD0onc5YV-Hyf4_pQ_-9" edge="1">
          <mxGeometry relative="1" as="geometry" />
        </mxCell>
        <mxCell id="B-XN8NcxJWXxhH18cWWU-9" value="COURSE" style="swimlane;childLayout=stackLayout;horizontal=1;startSize=50;horizontalStack=0;rounded=1;fontSize=14;fontStyle=0;strokeWidth=2;resizeParent=0;resizeLast=1;shadow=0;dashed=0;align=center;arcSize=4;whiteSpace=wrap;html=1;" parent="1" vertex="1">
          <mxGeometry x="-403" y="127" width="160" height="172" as="geometry" />
        </mxCell>
        <mxCell id="B-XN8NcxJWXxhH18cWWU-10" value="&lt;b&gt;+ course_id (pk)&lt;/b&gt;&lt;div&gt;&lt;b&gt;+ dept_id (sk)&lt;/b&gt;&lt;/div&gt;&lt;div&gt;&lt;b&gt;+ instructor_id (sk)&lt;br&gt;&lt;/b&gt;+ course_name&lt;div&gt;&lt;div&gt;+ credits&lt;/div&gt;&lt;/div&gt;&lt;/div&gt;&lt;div&gt;+ building_no&lt;/div&gt;&lt;div&gt;+ room_no&lt;/div&gt;" style="align=left;strokeColor=none;fillColor=none;spacingLeft=4;fontSize=12;verticalAlign=top;resizable=0;rotatable=0;part=1;html=1;" parent="B-XN8NcxJWXxhH18cWWU-9" vertex="1">
          <mxGeometry y="50" width="160" height="122" as="geometry" />
        </mxCell>
        <mxCell id="8DsD0onc5YV-Hyf4_pQ_-5" style="edgeStyle=orthogonalEdgeStyle;rounded=0;orthogonalLoop=1;jettySize=auto;html=1;exitX=0.5;exitY=0;exitDx=0;exitDy=0;entryX=0.5;entryY=1;entryDx=0;entryDy=0;" parent="1" source="B-XN8NcxJWXxhH18cWWU-11" target="B-XN8NcxJWXxhH18cWWU-10" edge="1">
          <mxGeometry relative="1" as="geometry" />
        </mxCell>
        <mxCell id="B-XN8NcxJWXxhH18cWWU-11" value="DEPARTMENT" style="swimlane;childLayout=stackLayout;horizontal=1;startSize=50;horizontalStack=0;rounded=1;fontSize=14;fontStyle=0;strokeWidth=2;resizeParent=0;resizeLast=1;shadow=0;dashed=0;align=center;arcSize=4;whiteSpace=wrap;html=1;" parent="1" vertex="1">
          <mxGeometry x="-553" y="417" width="160" height="120" as="geometry" />
        </mxCell>
        <mxCell id="B-XN8NcxJWXxhH18cWWU-12" value="&lt;div&gt;&lt;b&gt;+ dept_id (pk)&lt;/b&gt;&lt;/div&gt;&lt;div&gt;&lt;b&gt;+ dean_id (sk)&lt;br&gt;&lt;/b&gt;+ dept_name&lt;/div&gt;" style="align=left;strokeColor=none;fillColor=none;spacingLeft=4;fontSize=12;verticalAlign=top;resizable=0;rotatable=0;part=1;html=1;" parent="B-XN8NcxJWXxhH18cWWU-11" vertex="1">
          <mxGeometry y="50" width="160" height="70" as="geometry" />
        </mxCell>
        <mxCell id="B-XN8NcxJWXxhH18cWWU-13" value="INSTRUCTOR" style="swimlane;childLayout=stackLayout;horizontal=1;startSize=50;horizontalStack=0;rounded=1;fontSize=14;fontStyle=0;strokeWidth=2;resizeParent=0;resizeLast=1;shadow=0;dashed=0;align=center;arcSize=4;whiteSpace=wrap;html=1;" parent="1" vertex="1">
          <mxGeometry x="-1005" y="353" width="160" height="204" as="geometry" />
        </mxCell>
        <mxCell id="B-XN8NcxJWXxhH18cWWU-14" value="&lt;div&gt;&lt;b style=&quot;background-color: initial;&quot;&gt;+ emp_id (pk)&lt;/b&gt;&lt;/div&gt;&lt;div&gt;&lt;span style=&quot;background-color: initial;&quot;&gt;+ user_id&lt;/span&gt;&lt;/div&gt;&lt;div&gt;&lt;span style=&quot;background-color: initial;&quot;&gt;+ pswd&lt;/span&gt;&lt;/div&gt;&lt;div&gt;+ first name&lt;/div&gt;&lt;div&gt;+ last name&lt;/div&gt;&lt;div&gt;+ contact&lt;/div&gt;&lt;div&gt;+ email&lt;/div&gt;&lt;div&gt;+ dob&lt;/div&gt;&lt;div&gt;+ home_address&lt;/div&gt;&lt;div&gt;+ hft_cabin&lt;/div&gt;&lt;div&gt;&lt;br&gt;&lt;/div&gt;" style="align=left;strokeColor=none;fillColor=none;spacingLeft=4;fontSize=12;verticalAlign=top;resizable=0;rotatable=0;part=1;html=1;" parent="B-XN8NcxJWXxhH18cWWU-13" vertex="1">
          <mxGeometry y="50" width="160" height="154" as="geometry" />
        </mxCell>
        <mxCell id="B-XN8NcxJWXxhH18cWWU-53" value="&lt;font style=&quot;font-size: 36px;&quot;&gt;RELATIONAL SCHEMA: OPERATIONAL&lt;/font&gt;" style="text;html=1;align=center;verticalAlign=middle;whiteSpace=wrap;rounded=0;fontStyle=1" parent="1" vertex="1">
          <mxGeometry x="-1102" y="-235" width="722" height="37" as="geometry" />
        </mxCell>
        <mxCell id="B-XN8NcxJWXxhH18cWWU-54" value="&lt;font style=&quot;font-size: 36px;&quot;&gt;ACCESS CONTROL&lt;/font&gt;" style="text;html=1;align=center;verticalAlign=middle;whiteSpace=wrap;rounded=0;fontStyle=1" parent="1" vertex="1">
          <mxGeometry x="249" y="-323" width="776" height="37" as="geometry" />
        </mxCell>
        <mxCell id="bWOsvTHp7OhwePxf3man-1" value="FEES" style="swimlane;childLayout=stackLayout;horizontal=1;startSize=50;horizontalStack=0;rounded=1;fontSize=14;fontStyle=0;strokeWidth=2;resizeParent=0;resizeLast=1;shadow=0;dashed=0;align=center;arcSize=4;whiteSpace=wrap;html=1;" parent="1" vertex="1">
          <mxGeometry x="-1228" y="197" width="160" height="170" as="geometry" />
        </mxCell>
        <mxCell id="bWOsvTHp7OhwePxf3man-2" value="&lt;div&gt;&lt;b style=&quot;background-color: initial;&quot;&gt;+ student_id (sk)&lt;/b&gt;&lt;br&gt;&lt;/div&gt;&lt;div&gt;+ tuition_fees&lt;/div&gt;&lt;div&gt;+ semester_fees&lt;/div&gt;&lt;div&gt;+ d_ticket&lt;/div&gt;&lt;div&gt;+ research_variable&lt;/div&gt;&lt;div&gt;+ fees_paid (Y/N)&lt;/div&gt;" style="align=left;strokeColor=none;fillColor=none;spacingLeft=4;fontSize=12;verticalAlign=top;resizable=0;rotatable=0;part=1;html=1;" parent="bWOsvTHp7OhwePxf3man-1" vertex="1">
          <mxGeometry y="50" width="160" height="120" as="geometry" />
        </mxCell>
        <mxCell id="bWOsvTHp7OhwePxf3man-7" style="edgeStyle=orthogonalEdgeStyle;rounded=0;orthogonalLoop=1;jettySize=auto;html=1;exitX=0.5;exitY=1;exitDx=0;exitDy=0;" parent="1" source="B-XN8NcxJWXxhH18cWWU-8" target="bWOsvTHp7OhwePxf3man-1" edge="1">
          <mxGeometry relative="1" as="geometry" />
        </mxCell>
        <mxCell id="bWOsvTHp7OhwePxf3man-13" style="edgeStyle=orthogonalEdgeStyle;rounded=0;orthogonalLoop=1;jettySize=auto;html=1;exitX=0;exitY=0.5;exitDx=0;exitDy=0;entryX=1;entryY=0.25;entryDx=0;entryDy=0;" parent="1" source="B-XN8NcxJWXxhH18cWWU-10" target="B-XN8NcxJWXxhH18cWWU-6" edge="1">
          <mxGeometry relative="1" as="geometry" />
        </mxCell>
        <mxCell id="8DsD0onc5YV-Hyf4_pQ_-2" style="edgeStyle=orthogonalEdgeStyle;rounded=0;orthogonalLoop=1;jettySize=auto;html=1;exitX=0;exitY=0.25;exitDx=0;exitDy=0;entryX=0.75;entryY=1;entryDx=0;entryDy=0;" parent="1" source="B-XN8NcxJWXxhH18cWWU-12" target="B-XN8NcxJWXxhH18cWWU-6" edge="1">
          <mxGeometry relative="1" as="geometry">
            <mxPoint x="-593" y="478.5" as="sourcePoint" />
          </mxGeometry>
        </mxCell>
        <mxCell id="8DsD0onc5YV-Hyf4_pQ_-3" value="GRADES" style="swimlane;childLayout=stackLayout;horizontal=1;startSize=50;horizontalStack=0;rounded=1;fontSize=14;fontStyle=0;strokeWidth=2;resizeParent=0;resizeLast=1;shadow=0;dashed=0;align=center;arcSize=4;whiteSpace=wrap;html=1;" parent="1" vertex="1">
          <mxGeometry x="-618" y="-17" width="160" height="152" as="geometry" />
        </mxCell>
        <mxCell id="8DsD0onc5YV-Hyf4_pQ_-4" value="&lt;div&gt;&lt;b style=&quot;background-color: initial;&quot;&gt;+ student_id (sk)&lt;/b&gt;&lt;/div&gt;&lt;div&gt;&lt;b style=&quot;background-color: initial;&quot;&gt;+ course_id (sk)&lt;/b&gt;&lt;/div&gt;&lt;div&gt;+ semester&lt;/div&gt;&lt;div&gt;+ grade1&lt;/div&gt;&lt;div&gt;...&lt;/div&gt;&lt;div&gt;+ grade6&lt;/div&gt;" style="align=left;strokeColor=none;fillColor=none;spacingLeft=4;fontSize=12;verticalAlign=top;resizable=0;rotatable=0;part=1;html=1;" parent="8DsD0onc5YV-Hyf4_pQ_-3" vertex="1">
          <mxGeometry y="50" width="160" height="102" as="geometry" />
        </mxCell>
        <mxCell id="8DsD0onc5YV-Hyf4_pQ_-8" value="SUBJECT" style="swimlane;childLayout=stackLayout;horizontal=1;startSize=50;horizontalStack=0;rounded=1;fontSize=14;fontStyle=0;strokeWidth=2;resizeParent=0;resizeLast=1;shadow=0;dashed=0;align=center;arcSize=4;whiteSpace=wrap;html=1;" parent="1" vertex="1">
          <mxGeometry x="-821" y="-157" width="160" height="165" as="geometry" />
        </mxCell>
        <mxCell id="8DsD0onc5YV-Hyf4_pQ_-9" value="&lt;div&gt;&lt;b style=&quot;background-color: initial;&quot;&gt;+ student_id (sk)&lt;/b&gt;&lt;/div&gt;&lt;div&gt;&lt;b style=&quot;background-color: initial;&quot;&gt;+ course_id (sk)&lt;/b&gt;&lt;/div&gt;&lt;div&gt;+ semester&lt;/div&gt;&lt;div&gt;+ subject1&lt;/div&gt;&lt;div&gt;...&lt;/div&gt;&lt;div&gt;+ subject5&lt;/div&gt;&lt;div&gt;+ elective1&lt;/div&gt;" style="align=left;strokeColor=none;fillColor=none;spacingLeft=4;fontSize=12;verticalAlign=top;resizable=0;rotatable=0;part=1;html=1;" parent="8DsD0onc5YV-Hyf4_pQ_-8" vertex="1">
          <mxGeometry y="50" width="160" height="115" as="geometry" />
        </mxCell>
        <mxCell id="8DsD0onc5YV-Hyf4_pQ_-12" style="edgeStyle=orthogonalEdgeStyle;rounded=0;orthogonalLoop=1;jettySize=auto;html=1;exitX=1;exitY=0.75;exitDx=0;exitDy=0;entryX=0;entryY=0.25;entryDx=0;entryDy=0;" parent="1" source="B-XN8NcxJWXxhH18cWWU-8" target="B-XN8NcxJWXxhH18cWWU-6" edge="1">
          <mxGeometry relative="1" as="geometry" />
        </mxCell>
        <mxCell id="8DsD0onc5YV-Hyf4_pQ_-13" style="edgeStyle=orthogonalEdgeStyle;rounded=0;orthogonalLoop=1;jettySize=auto;html=1;exitX=1;exitY=0.25;exitDx=0;exitDy=0;entryX=-0.019;entryY=0.324;entryDx=0;entryDy=0;entryPerimeter=0;" parent="1" source="B-XN8NcxJWXxhH18cWWU-8" target="8DsD0onc5YV-Hyf4_pQ_-4" edge="1">
          <mxGeometry relative="1" as="geometry" />
        </mxCell>
        <mxCell id="8DsD0onc5YV-Hyf4_pQ_-16" value="&lt;b&gt;ADMINISTRATOR&lt;/b&gt;" style="swimlane;childLayout=stackLayout;horizontal=1;startSize=50;horizontalStack=0;rounded=1;fontSize=14;fontStyle=0;strokeWidth=2;resizeParent=0;resizeLast=1;shadow=0;dashed=0;align=center;arcSize=4;whiteSpace=wrap;html=1;" parent="1" vertex="1">
          <mxGeometry x="-1444" y="197" width="160" height="171" as="geometry" />
        </mxCell>
        <mxCell id="8DsD0onc5YV-Hyf4_pQ_-17" value="&lt;div&gt;&lt;b style=&quot;background-color: initial;&quot;&gt;+ user_id (pk)&lt;/b&gt;&lt;/div&gt;&lt;div&gt;+ pswd&lt;/div&gt;&lt;div&gt;+ first_name&lt;/div&gt;&lt;div&gt;+ last_name&lt;/div&gt;&lt;div&gt;+ contact&lt;/div&gt;&lt;div&gt;+ email&lt;/div&gt;" style="align=left;strokeColor=none;fillColor=none;spacingLeft=4;fontSize=12;verticalAlign=top;resizable=0;rotatable=0;part=1;html=1;" parent="8DsD0onc5YV-Hyf4_pQ_-16" vertex="1">
          <mxGeometry y="50" width="160" height="121" as="geometry" />
        </mxCell>
        <mxCell id="8DsD0onc5YV-Hyf4_pQ_-20" style="edgeStyle=orthogonalEdgeStyle;rounded=0;orthogonalLoop=1;jettySize=auto;html=1;exitX=1;exitY=0.75;exitDx=0;exitDy=0;entryX=0;entryY=0.75;entryDx=0;entryDy=0;" parent="1" source="B-XN8NcxJWXxhH18cWWU-14" target="B-XN8NcxJWXxhH18cWWU-12" edge="1">
          <mxGeometry relative="1" as="geometry" />
        </mxCell>
        <mxCell id="8DsD0onc5YV-Hyf4_pQ_-22" style="edgeStyle=orthogonalEdgeStyle;rounded=0;orthogonalLoop=1;jettySize=auto;html=1;exitX=0.75;exitY=1;exitDx=0;exitDy=0;entryX=0.75;entryY=1;entryDx=0;entryDy=0;" parent="1" source="B-XN8NcxJWXxhH18cWWU-14" target="B-XN8NcxJWXxhH18cWWU-10" edge="1">
          <mxGeometry relative="1" as="geometry">
            <Array as="points">
              <mxPoint x="-885" y="605" />
              <mxPoint x="-283" y="605" />
            </Array>
          </mxGeometry>
        </mxCell>
        <mxCell id="ahG-3Z41PnsVqle0ylGi-1" value="&lt;font style=&quot;font-size: 24px;&quot;&gt;Insert/Modify/Delete&lt;/font&gt;" style="rounded=0;whiteSpace=wrap;html=1;" parent="1" vertex="1">
          <mxGeometry x="823" y="26" width="265" height="101" as="geometry" />
        </mxCell>
        <mxCell id="ahG-3Z41PnsVqle0ylGi-3" value="" style="endArrow=none;dashed=1;html=1;dashPattern=1 3;strokeWidth=2;rounded=0;" parent="1" edge="1">
          <mxGeometry width="50" height="50" relative="1" as="geometry">
            <mxPoint x="-1248" y="641" as="sourcePoint" />
            <mxPoint x="-1248" y="-165" as="targetPoint" />
          </mxGeometry>
        </mxCell>
        <mxCell id="ahG-3Z41PnsVqle0ylGi-5" value="" style="endArrow=none;dashed=1;html=1;dashPattern=1 3;strokeWidth=2;rounded=0;" parent="1" edge="1">
          <mxGeometry width="50" height="50" relative="1" as="geometry">
            <mxPoint x="-1250" y="-164" as="sourcePoint" />
            <mxPoint x="-181" y="-168" as="targetPoint" />
          </mxGeometry>
        </mxCell>
        <mxCell id="ahG-3Z41PnsVqle0ylGi-6" value="" style="endArrow=none;dashed=1;html=1;dashPattern=1 3;strokeWidth=2;rounded=0;" parent="1" edge="1">
          <mxGeometry width="50" height="50" relative="1" as="geometry">
            <mxPoint x="-182" y="634" as="sourcePoint" />
            <mxPoint x="-182" y="-164" as="targetPoint" />
          </mxGeometry>
        </mxCell>
        <mxCell id="ahG-3Z41PnsVqle0ylGi-7" value="" style="endArrow=none;dashed=1;html=1;dashPattern=1 3;strokeWidth=2;rounded=0;" parent="1" edge="1">
          <mxGeometry width="50" height="50" relative="1" as="geometry">
            <mxPoint x="-1253" y="641" as="sourcePoint" />
            <mxPoint x="-182" y="633" as="targetPoint" />
          </mxGeometry>
        </mxCell>
        <mxCell id="ahG-3Z41PnsVqle0ylGi-12" style="edgeStyle=orthogonalEdgeStyle;rounded=0;orthogonalLoop=1;jettySize=auto;html=1;exitX=1;exitY=0.3333333333333333;exitDx=0;exitDy=0;exitPerimeter=0;entryX=0;entryY=0.5;entryDx=0;entryDy=0;" parent="1" source="ahG-3Z41PnsVqle0ylGi-9" target="ahG-3Z41PnsVqle0ylGi-1" edge="1">
          <mxGeometry relative="1" as="geometry" />
        </mxCell>
        <mxCell id="ahG-3Z41PnsVqle0ylGi-25" style="edgeStyle=orthogonalEdgeStyle;rounded=0;orthogonalLoop=1;jettySize=auto;html=1;exitX=1;exitY=0.3333333333333333;exitDx=0;exitDy=0;exitPerimeter=0;" parent="1" source="ahG-3Z41PnsVqle0ylGi-9" target="ahG-3Z41PnsVqle0ylGi-16" edge="1">
          <mxGeometry relative="1" as="geometry">
            <Array as="points">
              <mxPoint x="661" y="77" />
              <mxPoint x="661" y="-18" />
              <mxPoint x="955" y="-18" />
            </Array>
          </mxGeometry>
        </mxCell>
        <mxCell id="ahG-3Z41PnsVqle0ylGi-28" style="edgeStyle=orthogonalEdgeStyle;rounded=0;orthogonalLoop=1;jettySize=auto;html=1;exitX=1;exitY=0.3333333333333333;exitDx=0;exitDy=0;exitPerimeter=0;" parent="1" source="ahG-3Z41PnsVqle0ylGi-9" target="ahG-3Z41PnsVqle0ylGi-18" edge="1">
          <mxGeometry relative="1" as="geometry">
            <Array as="points">
              <mxPoint x="661" y="77" />
              <mxPoint x="661" y="169" />
              <mxPoint x="969" y="169" />
            </Array>
          </mxGeometry>
        </mxCell>
        <mxCell id="ahG-3Z41PnsVqle0ylGi-9" value="&lt;font style=&quot;font-size: 24px;&quot;&gt;ADMIN&lt;/font&gt;" style="shape=umlActor;verticalLabelPosition=bottom;verticalAlign=top;html=1;outlineConnect=0;" parent="1" vertex="1">
          <mxGeometry x="247" y="42" width="68" height="105" as="geometry" />
        </mxCell>
        <mxCell id="ahG-3Z41PnsVqle0ylGi-20" style="edgeStyle=orthogonalEdgeStyle;rounded=0;orthogonalLoop=1;jettySize=auto;html=1;exitX=1;exitY=0.3333333333333333;exitDx=0;exitDy=0;exitPerimeter=0;" parent="1" source="ahG-3Z41PnsVqle0ylGi-13" target="ahG-3Z41PnsVqle0ylGi-16" edge="1">
          <mxGeometry relative="1" as="geometry" />
        </mxCell>
        <mxCell id="ahG-3Z41PnsVqle0ylGi-13" value="&lt;font style=&quot;font-size: 24px;&quot;&gt;STUDENT&lt;/font&gt;" style="shape=umlActor;verticalLabelPosition=bottom;verticalAlign=top;html=1;outlineConnect=0;" parent="1" vertex="1">
          <mxGeometry x="247" y="-169" width="68" height="105" as="geometry" />
        </mxCell>
        <mxCell id="ahG-3Z41PnsVqle0ylGi-19" style="edgeStyle=orthogonalEdgeStyle;rounded=0;orthogonalLoop=1;jettySize=auto;html=1;exitX=1;exitY=0.3333333333333333;exitDx=0;exitDy=0;exitPerimeter=0;entryX=0;entryY=0.5;entryDx=0;entryDy=0;" parent="1" source="ahG-3Z41PnsVqle0ylGi-14" target="ahG-3Z41PnsVqle0ylGi-18" edge="1">
          <mxGeometry relative="1" as="geometry" />
        </mxCell>
        <mxCell id="ahG-3Z41PnsVqle0ylGi-14" value="&lt;font style=&quot;font-size: 24px;&quot;&gt;INSTRUCTOR&lt;/font&gt;" style="shape=umlActor;verticalLabelPosition=bottom;verticalAlign=top;html=1;outlineConnect=0;" parent="1" vertex="1">
          <mxGeometry x="249" y="253" width="68" height="105" as="geometry" />
        </mxCell>
        <mxCell id="ahG-3Z41PnsVqle0ylGi-16" value="&lt;font style=&quot;font-size: 24px;&quot;&gt;View Student Details, Fees Structure&lt;/font&gt;" style="rounded=0;whiteSpace=wrap;html=1;" parent="1" vertex="1">
          <mxGeometry x="823" y="-185" width="265" height="101" as="geometry" />
        </mxCell>
        <mxCell id="ahG-3Z41PnsVqle0ylGi-18" value="&lt;font style=&quot;font-size: 24px;&quot;&gt;View Instructor Details,&lt;/font&gt;&lt;div&gt;&lt;font style=&quot;font-size: 24px;&quot;&gt;Results&lt;/font&gt;&lt;/div&gt;" style="rounded=0;whiteSpace=wrap;html=1;" parent="1" vertex="1">
          <mxGeometry x="836" y="238" width="265" height="101" as="geometry" />
        </mxCell>
        <mxCell id="ahG-3Z41PnsVqle0ylGi-24" style="edgeStyle=orthogonalEdgeStyle;rounded=0;orthogonalLoop=1;jettySize=auto;html=1;exitX=1;exitY=0.25;exitDx=0;exitDy=0;" parent="1" source="8DsD0onc5YV-Hyf4_pQ_-17" edge="1">
          <mxGeometry relative="1" as="geometry">
            <mxPoint x="-1246.5384615384614" y="277" as="targetPoint" />
          </mxGeometry>
        </mxCell>
        <mxCell id="9h_zaofMqlGME5cnehlP-5" value="&lt;font style=&quot;font-size: 24px;&quot;&gt;FINANCE 1&lt;/font&gt;" style="shape=umlActor;verticalLabelPosition=bottom;verticalAlign=top;html=1;outlineConnect=0;" parent="1" vertex="1">
          <mxGeometry x="-991" y="1543" width="68" height="105" as="geometry" />
        </mxCell>
        <mxCell id="9h_zaofMqlGME5cnehlP-7" value="&lt;font style=&quot;font-size: 24px;&quot;&gt;STUDENT&lt;/font&gt;" style="shape=umlActor;verticalLabelPosition=bottom;verticalAlign=top;html=1;outlineConnect=0;" parent="1" vertex="1">
          <mxGeometry x="293" y="1303" width="68" height="105" as="geometry" />
        </mxCell>
        <mxCell id="9h_zaofMqlGME5cnehlP-9" value="&lt;font style=&quot;font-size: 24px;&quot;&gt;INSTRUCTOR&lt;/font&gt;" style="shape=umlActor;verticalLabelPosition=bottom;verticalAlign=top;html=1;outlineConnect=0;" parent="1" vertex="1">
          <mxGeometry x="304" y="1732" width="68" height="105" as="geometry" />
        </mxCell>
        <mxCell id="9h_zaofMqlGME5cnehlP-22" value="&lt;font style=&quot;font-size: 24px;&quot;&gt;FINANCE 2&lt;/font&gt;" style="shape=umlActor;verticalLabelPosition=bottom;verticalAlign=top;html=1;outlineConnect=0;" parent="1" vertex="1">
          <mxGeometry x="-991" y="1740" width="68" height="105" as="geometry" />
        </mxCell>
        <mxCell id="9h_zaofMqlGME5cnehlP-23" value="&lt;font style=&quot;font-size: 24px;&quot;&gt;FINANCE 3&lt;/font&gt;" style="shape=umlActor;verticalLabelPosition=bottom;verticalAlign=top;html=1;outlineConnect=0;" parent="1" vertex="1">
          <mxGeometry x="-991" y="1937" width="68" height="105" as="geometry" />
        </mxCell>
        <mxCell id="9h_zaofMqlGME5cnehlP-26" value="" style="group" parent="1" vertex="1" connectable="0">
          <mxGeometry x="-450" y="1179" width="441" height="802" as="geometry" />
        </mxCell>
        <mxCell id="9h_zaofMqlGME5cnehlP-10" value="&lt;font style=&quot;font-size: 24px;&quot;&gt;View Student Details&lt;/font&gt;" style="rounded=0;whiteSpace=wrap;html=1;" parent="9h_zaofMqlGME5cnehlP-26" vertex="1">
          <mxGeometry width="441" height="101" as="geometry" />
        </mxCell>
        <mxCell id="9h_zaofMqlGME5cnehlP-11" value="&lt;font style=&quot;font-size: 24px;&quot;&gt;View Instructor Details&lt;/font&gt;" style="rounded=0;whiteSpace=wrap;html=1;" parent="9h_zaofMqlGME5cnehlP-26" vertex="1">
          <mxGeometry y="701" width="441" height="101" as="geometry" />
        </mxCell>
        <mxCell id="9h_zaofMqlGME5cnehlP-13" value="&lt;font style=&quot;font-size: 24px;&quot;&gt;View Fee Structure&lt;/font&gt;" style="rounded=0;whiteSpace=wrap;html=1;" parent="9h_zaofMqlGME5cnehlP-26" vertex="1">
          <mxGeometry y="131" width="441" height="101" as="geometry" />
        </mxCell>
        <mxCell id="9h_zaofMqlGME5cnehlP-14" value="&lt;font style=&quot;font-size: 24px;&quot;&gt;Make Fee Payment&lt;/font&gt;" style="rounded=0;whiteSpace=wrap;html=1;" parent="9h_zaofMqlGME5cnehlP-26" vertex="1">
          <mxGeometry y="263" width="441" height="101" as="geometry" />
        </mxCell>
        <mxCell id="9h_zaofMqlGME5cnehlP-15" value="&lt;font style=&quot;font-size: 24px;&quot;&gt;Enter Grades&lt;/font&gt;" style="rounded=0;whiteSpace=wrap;html=1;" parent="9h_zaofMqlGME5cnehlP-26" vertex="1">
          <mxGeometry y="557" width="441" height="101" as="geometry" />
        </mxCell>
        <mxCell id="9h_zaofMqlGME5cnehlP-17" value="&lt;font style=&quot;font-size: 24px;&quot;&gt;View Results&lt;/font&gt;" style="rounded=0;whiteSpace=wrap;html=1;" parent="9h_zaofMqlGME5cnehlP-26" vertex="1">
          <mxGeometry y="410" width="441" height="101" as="geometry" />
        </mxCell>
        <mxCell id="9h_zaofMqlGME5cnehlP-27" value="" style="group" parent="1" vertex="1" connectable="0">
          <mxGeometry x="-448" y="2108" width="439" height="397" as="geometry" />
        </mxCell>
        <mxCell id="9h_zaofMqlGME5cnehlP-1" value="&lt;span style=&quot;font-size: 24px;&quot;&gt;Register / De-register Students&lt;/span&gt;" style="rounded=0;whiteSpace=wrap;html=1;" parent="9h_zaofMqlGME5cnehlP-27" vertex="1">
          <mxGeometry width="439" height="101" as="geometry" />
        </mxCell>
        <mxCell id="9h_zaofMqlGME5cnehlP-19" value="&lt;span style=&quot;font-size: 24px;&quot;&gt;Insert / Update / Remove&amp;nbsp;&lt;/span&gt;&lt;div&gt;&lt;span style=&quot;font-size: 24px;&quot;&gt;Students&lt;/span&gt;&lt;/div&gt;" style="rounded=0;whiteSpace=wrap;html=1;" parent="9h_zaofMqlGME5cnehlP-27" vertex="1">
          <mxGeometry y="148" width="439" height="101" as="geometry" />
        </mxCell>
        <mxCell id="9h_zaofMqlGME5cnehlP-20" value="&lt;span style=&quot;font-size: 24px;&quot;&gt;Insert / Update / Remove&amp;nbsp;&lt;/span&gt;&lt;div&gt;&lt;span style=&quot;font-size: 24px;&quot;&gt;Instructors&lt;/span&gt;&lt;/div&gt;" style="rounded=0;whiteSpace=wrap;html=1;" parent="9h_zaofMqlGME5cnehlP-27" vertex="1">
          <mxGeometry y="296" width="439" height="101" as="geometry" />
        </mxCell>
        <mxCell id="9h_zaofMqlGME5cnehlP-30" style="edgeStyle=orthogonalEdgeStyle;rounded=0;orthogonalLoop=1;jettySize=auto;html=1;exitX=1;exitY=0.5;exitDx=0;exitDy=0;entryX=0;entryY=0.5;entryDx=0;entryDy=0;" parent="1" source="9h_zaofMqlGME5cnehlP-24" target="9h_zaofMqlGME5cnehlP-18" edge="1">
          <mxGeometry relative="1" as="geometry" />
        </mxCell>
        <mxCell id="9h_zaofMqlGME5cnehlP-32" style="edgeStyle=orthogonalEdgeStyle;rounded=0;orthogonalLoop=1;jettySize=auto;html=1;exitX=1;exitY=0.75;exitDx=0;exitDy=0;entryX=0;entryY=0.5;entryDx=0;entryDy=0;" parent="1" source="9h_zaofMqlGME5cnehlP-24" target="9h_zaofMqlGME5cnehlP-21" edge="1">
          <mxGeometry relative="1" as="geometry" />
        </mxCell>
        <mxCell id="9h_zaofMqlGME5cnehlP-39" value="&lt;font style=&quot;font-size: 36px;&quot;&gt;University Management System&lt;/font&gt;" style="text;html=1;align=center;verticalAlign=middle;resizable=0;points=[];autosize=1;strokeColor=none;fillColor=none;" parent="1" vertex="1">
          <mxGeometry x="-509" y="1065" width="526" height="55" as="geometry" />
        </mxCell>
        <mxCell id="9h_zaofMqlGME5cnehlP-42" value="" style="endArrow=classic;html=1;rounded=0;entryX=1;entryY=0.5;entryDx=0;entryDy=0;" parent="1" target="9h_zaofMqlGME5cnehlP-10" edge="1">
          <mxGeometry width="50" height="50" relative="1" as="geometry">
            <mxPoint x="252" y="1334" as="sourcePoint" />
            <mxPoint x="135" y="1297" as="targetPoint" />
          </mxGeometry>
        </mxCell>
        <mxCell id="9h_zaofMqlGME5cnehlP-43" value="" style="endArrow=classic;html=1;rounded=0;entryX=1;entryY=0.5;entryDx=0;entryDy=0;" parent="1" target="9h_zaofMqlGME5cnehlP-13" edge="1">
          <mxGeometry width="50" height="50" relative="1" as="geometry">
            <mxPoint x="262" y="1344" as="sourcePoint" />
            <mxPoint x="1" y="1240" as="targetPoint" />
          </mxGeometry>
        </mxCell>
        <mxCell id="9h_zaofMqlGME5cnehlP-44" value="" style="endArrow=classic;html=1;rounded=0;entryX=1;entryY=0.5;entryDx=0;entryDy=0;" parent="1" target="9h_zaofMqlGME5cnehlP-14" edge="1">
          <mxGeometry width="50" height="50" relative="1" as="geometry">
            <mxPoint x="272" y="1354" as="sourcePoint" />
            <mxPoint x="11" y="1250" as="targetPoint" />
          </mxGeometry>
        </mxCell>
        <mxCell id="9h_zaofMqlGME5cnehlP-45" value="" style="endArrow=classic;html=1;rounded=0;entryX=1;entryY=0.5;entryDx=0;entryDy=0;" parent="1" target="9h_zaofMqlGME5cnehlP-17" edge="1">
          <mxGeometry width="50" height="50" relative="1" as="geometry">
            <mxPoint x="282" y="1364" as="sourcePoint" />
            <mxPoint x="21" y="1260" as="targetPoint" />
          </mxGeometry>
        </mxCell>
        <mxCell id="9h_zaofMqlGME5cnehlP-47" value="" style="endArrow=classic;html=1;rounded=0;entryX=1;entryY=0.5;entryDx=0;entryDy=0;" parent="1" target="9h_zaofMqlGME5cnehlP-17" edge="1">
          <mxGeometry width="50" height="50" relative="1" as="geometry">
            <mxPoint x="284" y="1801" as="sourcePoint" />
            <mxPoint x="41" y="1280" as="targetPoint" />
          </mxGeometry>
        </mxCell>
        <mxCell id="9h_zaofMqlGME5cnehlP-48" value="" style="endArrow=classic;html=1;rounded=0;entryX=1;entryY=0.5;entryDx=0;entryDy=0;" parent="1" target="9h_zaofMqlGME5cnehlP-15" edge="1">
          <mxGeometry width="50" height="50" relative="1" as="geometry">
            <mxPoint x="294" y="1811" as="sourcePoint" />
            <mxPoint x="1" y="1650" as="targetPoint" />
          </mxGeometry>
        </mxCell>
        <mxCell id="9h_zaofMqlGME5cnehlP-49" value="" style="endArrow=classic;html=1;rounded=0;entryX=1;entryY=0.5;entryDx=0;entryDy=0;" parent="1" target="9h_zaofMqlGME5cnehlP-11" edge="1">
          <mxGeometry width="50" height="50" relative="1" as="geometry">
            <mxPoint x="304" y="1821" as="sourcePoint" />
            <mxPoint x="11" y="1660" as="targetPoint" />
          </mxGeometry>
        </mxCell>
        <mxCell id="9h_zaofMqlGME5cnehlP-52" value="" style="rounded=0;whiteSpace=wrap;html=1;" parent="1" vertex="1">
          <mxGeometry x="1647" y="1096" width="536" height="636" as="geometry" />
        </mxCell>
        <mxCell id="9h_zaofMqlGME5cnehlP-53" value="" style="group" parent="1" vertex="1" connectable="0">
          <mxGeometry x="1696" y="1130" width="441" height="802" as="geometry" />
        </mxCell>
        <mxCell id="9h_zaofMqlGME5cnehlP-54" value="&lt;font style=&quot;font-size: 24px;&quot;&gt;View Student Details&lt;/font&gt;" style="rounded=0;whiteSpace=wrap;html=1;" parent="9h_zaofMqlGME5cnehlP-53" vertex="1">
          <mxGeometry width="441" height="101" as="geometry" />
        </mxCell>
        <mxCell id="9h_zaofMqlGME5cnehlP-56" value="&lt;font style=&quot;font-size: 24px;&quot;&gt;View Fee Structure&lt;/font&gt;" style="rounded=0;whiteSpace=wrap;html=1;" parent="9h_zaofMqlGME5cnehlP-53" vertex="1">
          <mxGeometry y="131" width="441" height="101" as="geometry" />
        </mxCell>
        <mxCell id="9h_zaofMqlGME5cnehlP-57" value="&lt;font style=&quot;font-size: 24px;&quot;&gt;Make Fee Payment&lt;/font&gt;" style="rounded=0;whiteSpace=wrap;html=1;" parent="9h_zaofMqlGME5cnehlP-53" vertex="1">
          <mxGeometry y="263" width="441" height="101" as="geometry" />
        </mxCell>
        <mxCell id="9h_zaofMqlGME5cnehlP-59" value="&lt;font style=&quot;font-size: 24px;&quot;&gt;View Results&lt;/font&gt;" style="rounded=0;whiteSpace=wrap;html=1;" parent="9h_zaofMqlGME5cnehlP-53" vertex="1">
          <mxGeometry y="410" width="441" height="101" as="geometry" />
        </mxCell>
        <mxCell id="9h_zaofMqlGME5cnehlP-62" value="&lt;font style=&quot;font-size: 24px;&quot;&gt;PARENTS / GUARDIAN&lt;/font&gt;" style="shape=umlActor;verticalLabelPosition=bottom;verticalAlign=top;html=1;outlineConnect=0;" parent="1" vertex="1">
          <mxGeometry x="2447" y="1254" width="68" height="105" as="geometry" />
        </mxCell>
        <mxCell id="9h_zaofMqlGME5cnehlP-63" value="" style="endArrow=classic;html=1;rounded=0;entryX=1;entryY=0.5;entryDx=0;entryDy=0;" parent="1" edge="1">
          <mxGeometry width="50" height="50" relative="1" as="geometry">
            <mxPoint x="2406" y="1285" as="sourcePoint" />
            <mxPoint x="2145" y="1181" as="targetPoint" />
          </mxGeometry>
        </mxCell>
        <mxCell id="9h_zaofMqlGME5cnehlP-64" value="" style="endArrow=classic;html=1;rounded=0;entryX=1;entryY=0.5;entryDx=0;entryDy=0;" parent="1" edge="1">
          <mxGeometry width="50" height="50" relative="1" as="geometry">
            <mxPoint x="2416" y="1295" as="sourcePoint" />
            <mxPoint x="2145" y="1312" as="targetPoint" />
          </mxGeometry>
        </mxCell>
        <mxCell id="9h_zaofMqlGME5cnehlP-65" value="" style="endArrow=classic;html=1;rounded=0;entryX=1;entryY=0.5;entryDx=0;entryDy=0;" parent="1" edge="1">
          <mxGeometry width="50" height="50" relative="1" as="geometry">
            <mxPoint x="2426" y="1305" as="sourcePoint" />
            <mxPoint x="2145" y="1444" as="targetPoint" />
          </mxGeometry>
        </mxCell>
        <mxCell id="9h_zaofMqlGME5cnehlP-66" value="" style="endArrow=classic;html=1;rounded=0;entryX=1;entryY=0.5;entryDx=0;entryDy=0;" parent="1" edge="1">
          <mxGeometry width="50" height="50" relative="1" as="geometry">
            <mxPoint x="2436" y="1315" as="sourcePoint" />
            <mxPoint x="2145" y="1591" as="targetPoint" />
          </mxGeometry>
        </mxCell>
        <mxCell id="9h_zaofMqlGME5cnehlP-67" value="&lt;font style=&quot;font-size: 36px;&quot;&gt;University Management System&lt;/font&gt;" style="text;html=1;align=center;verticalAlign=middle;resizable=0;points=[];autosize=1;strokeColor=none;fillColor=none;" parent="1" vertex="1">
          <mxGeometry x="1652" y="1003" width="526" height="55" as="geometry" />
        </mxCell>
        <mxCell id="GsQDXdhscdp41sKr75j3-1" value="&lt;b&gt;&lt;font style=&quot;font-size: 14px;&quot;&gt;1&lt;/font&gt;&lt;/b&gt;" style="text;html=1;align=center;verticalAlign=middle;resizable=0;points=[];autosize=1;strokeColor=none;fillColor=none;" vertex="1" parent="1">
          <mxGeometry x="-969.5" y="234" width="26" height="29" as="geometry" />
        </mxCell>
        <mxCell id="GsQDXdhscdp41sKr75j3-2" value="&lt;b&gt;&lt;font style=&quot;font-size: 14px;&quot;&gt;1&lt;/font&gt;&lt;/b&gt;" style="text;html=1;align=center;verticalAlign=middle;resizable=0;points=[];autosize=1;strokeColor=none;fillColor=none;" vertex="1" parent="1">
          <mxGeometry x="-1068" y="281" width="26" height="29" as="geometry" />
        </mxCell>
        <mxCell id="GsQDXdhscdp41sKr75j3-3" value="&lt;font style=&quot;font-size: 14px;&quot;&gt;1&lt;/font&gt;" style="text;html=1;align=center;verticalAlign=middle;resizable=0;points=[];autosize=1;strokeColor=none;fillColor=none;fontStyle=1" vertex="1" parent="1">
          <mxGeometry x="-948" y="-25" width="26" height="29" as="geometry" />
        </mxCell>
        <mxCell id="GsQDXdhscdp41sKr75j3-4" value="&lt;font style=&quot;font-size: 24px;&quot;&gt;*&lt;/font&gt;" style="text;html=1;align=center;verticalAlign=middle;resizable=0;points=[];autosize=1;strokeColor=none;fillColor=none;fontStyle=1" vertex="1" parent="1">
          <mxGeometry x="-846" y="-81" width="27" height="41" as="geometry" />
        </mxCell>
        <mxCell id="GsQDXdhscdp41sKr75j3-21" value="" style="group" vertex="1" connectable="0" parent="1">
          <mxGeometry x="-4214" y="-94" width="356" height="264" as="geometry" />
        </mxCell>
        <mxCell id="GsQDXdhscdp41sKr75j3-5" value="FEES" style="rounded=0;whiteSpace=wrap;html=1;" vertex="1" parent="GsQDXdhscdp41sKr75j3-21">
          <mxGeometry x="146" y="90" width="120" height="60" as="geometry" />
        </mxCell>
        <mxCell id="GsQDXdhscdp41sKr75j3-20" style="rounded=0;orthogonalLoop=1;jettySize=auto;html=1;exitX=0.5;exitY=1;exitDx=0;exitDy=0;entryX=0.75;entryY=0;entryDx=0;entryDy=0;" edge="1" parent="GsQDXdhscdp41sKr75j3-21" source="GsQDXdhscdp41sKr75j3-6" target="GsQDXdhscdp41sKr75j3-5">
          <mxGeometry relative="1" as="geometry" />
        </mxCell>
        <mxCell id="GsQDXdhscdp41sKr75j3-6" value="&lt;u&gt;&lt;b&gt;student_id&lt;/b&gt;&lt;/u&gt;" style="ellipse;whiteSpace=wrap;html=1;" vertex="1" parent="GsQDXdhscdp41sKr75j3-21">
          <mxGeometry x="275" y="5" width="81" height="49" as="geometry" />
        </mxCell>
        <mxCell id="GsQDXdhscdp41sKr75j3-16" style="rounded=0;orthogonalLoop=1;jettySize=auto;html=1;exitX=1;exitY=1;exitDx=0;exitDy=0;entryX=0;entryY=0;entryDx=0;entryDy=0;" edge="1" parent="GsQDXdhscdp41sKr75j3-21" source="GsQDXdhscdp41sKr75j3-7" target="GsQDXdhscdp41sKr75j3-5">
          <mxGeometry relative="1" as="geometry" />
        </mxCell>
        <mxCell id="GsQDXdhscdp41sKr75j3-7" value="tuition_fees" style="ellipse;whiteSpace=wrap;html=1;" vertex="1" parent="GsQDXdhscdp41sKr75j3-21">
          <mxGeometry x="39" y="15" width="81" height="49" as="geometry" />
        </mxCell>
        <mxCell id="GsQDXdhscdp41sKr75j3-17" style="rounded=0;orthogonalLoop=1;jettySize=auto;html=1;exitX=1;exitY=0.5;exitDx=0;exitDy=0;entryX=0;entryY=0.5;entryDx=0;entryDy=0;" edge="1" parent="GsQDXdhscdp41sKr75j3-21" source="GsQDXdhscdp41sKr75j3-8" target="GsQDXdhscdp41sKr75j3-5">
          <mxGeometry relative="1" as="geometry" />
        </mxCell>
        <mxCell id="GsQDXdhscdp41sKr75j3-8" value="semester_fees" style="ellipse;whiteSpace=wrap;html=1;" vertex="1" parent="GsQDXdhscdp41sKr75j3-21">
          <mxGeometry y="82" width="96" height="56" as="geometry" />
        </mxCell>
        <mxCell id="GsQDXdhscdp41sKr75j3-18" style="rounded=0;orthogonalLoop=1;jettySize=auto;html=1;exitX=1;exitY=0.5;exitDx=0;exitDy=0;entryX=0;entryY=1;entryDx=0;entryDy=0;" edge="1" parent="GsQDXdhscdp41sKr75j3-21" source="GsQDXdhscdp41sKr75j3-9" target="GsQDXdhscdp41sKr75j3-5">
          <mxGeometry relative="1" as="geometry" />
        </mxCell>
        <mxCell id="GsQDXdhscdp41sKr75j3-9" value="d_ticket" style="ellipse;whiteSpace=wrap;html=1;" vertex="1" parent="GsQDXdhscdp41sKr75j3-21">
          <mxGeometry x="25" y="160" width="81" height="49" as="geometry" />
        </mxCell>
        <mxCell id="GsQDXdhscdp41sKr75j3-19" style="rounded=0;orthogonalLoop=1;jettySize=auto;html=1;exitX=0.5;exitY=0;exitDx=0;exitDy=0;entryX=0.5;entryY=1;entryDx=0;entryDy=0;" edge="1" parent="GsQDXdhscdp41sKr75j3-21" source="GsQDXdhscdp41sKr75j3-10" target="GsQDXdhscdp41sKr75j3-5">
          <mxGeometry relative="1" as="geometry" />
        </mxCell>
        <mxCell id="GsQDXdhscdp41sKr75j3-10" value="research_variable" style="ellipse;whiteSpace=wrap;html=1;" vertex="1" parent="GsQDXdhscdp41sKr75j3-21">
          <mxGeometry x="131.5" y="203" width="118" height="61" as="geometry" />
        </mxCell>
        <mxCell id="GsQDXdhscdp41sKr75j3-15" style="rounded=0;orthogonalLoop=1;jettySize=auto;html=1;exitX=0.5;exitY=1;exitDx=0;exitDy=0;" edge="1" parent="GsQDXdhscdp41sKr75j3-21" source="GsQDXdhscdp41sKr75j3-11" target="GsQDXdhscdp41sKr75j3-5">
          <mxGeometry relative="1" as="geometry" />
        </mxCell>
        <mxCell id="GsQDXdhscdp41sKr75j3-11" value="fees_paid" style="ellipse;whiteSpace=wrap;html=1;" vertex="1" parent="GsQDXdhscdp41sKr75j3-21">
          <mxGeometry x="150" width="81" height="49" as="geometry" />
        </mxCell>
        <mxCell id="GsQDXdhscdp41sKr75j3-52" value="" style="group" vertex="1" connectable="0" parent="1">
          <mxGeometry x="-3682" y="-275" width="546" height="382" as="geometry" />
        </mxCell>
        <mxCell id="GsQDXdhscdp41sKr75j3-22" value="" style="group" vertex="1" connectable="0" parent="GsQDXdhscdp41sKr75j3-52">
          <mxGeometry x="29" y="87" width="368" height="293" as="geometry" />
        </mxCell>
        <mxCell id="GsQDXdhscdp41sKr75j3-23" value="STUDENT" style="rounded=0;whiteSpace=wrap;html=1;" vertex="1" parent="GsQDXdhscdp41sKr75j3-22">
          <mxGeometry x="146" y="90" width="120" height="60" as="geometry" />
        </mxCell>
        <mxCell id="GsQDXdhscdp41sKr75j3-39" style="rounded=0;orthogonalLoop=1;jettySize=auto;html=1;exitX=0.5;exitY=0;exitDx=0;exitDy=0;entryX=0.75;entryY=1;entryDx=0;entryDy=0;" edge="1" parent="GsQDXdhscdp41sKr75j3-22" source="GsQDXdhscdp41sKr75j3-38" target="GsQDXdhscdp41sKr75j3-23">
          <mxGeometry relative="1" as="geometry" />
        </mxCell>
        <mxCell id="GsQDXdhscdp41sKr75j3-38" value="contact" style="ellipse;whiteSpace=wrap;html=1;" vertex="1" parent="GsQDXdhscdp41sKr75j3-22">
          <mxGeometry x="287" y="215" width="81" height="49" as="geometry" />
        </mxCell>
        <mxCell id="GsQDXdhscdp41sKr75j3-41" style="rounded=0;orthogonalLoop=1;jettySize=auto;html=1;entryX=0.5;entryY=1;entryDx=0;entryDy=0;" edge="1" parent="GsQDXdhscdp41sKr75j3-22" source="GsQDXdhscdp41sKr75j3-40" target="GsQDXdhscdp41sKr75j3-23">
          <mxGeometry relative="1" as="geometry" />
        </mxCell>
        <mxCell id="GsQDXdhscdp41sKr75j3-40" value="email" style="ellipse;whiteSpace=wrap;html=1;" vertex="1" parent="GsQDXdhscdp41sKr75j3-22">
          <mxGeometry x="193" y="222" width="81" height="49" as="geometry" />
        </mxCell>
        <mxCell id="GsQDXdhscdp41sKr75j3-43" style="rounded=0;orthogonalLoop=1;jettySize=auto;html=1;entryX=0.25;entryY=1;entryDx=0;entryDy=0;" edge="1" parent="GsQDXdhscdp41sKr75j3-22" source="GsQDXdhscdp41sKr75j3-42" target="GsQDXdhscdp41sKr75j3-23">
          <mxGeometry relative="1" as="geometry" />
        </mxCell>
        <mxCell id="GsQDXdhscdp41sKr75j3-42" value="dob" style="ellipse;whiteSpace=wrap;html=1;" vertex="1" parent="GsQDXdhscdp41sKr75j3-22">
          <mxGeometry x="92" y="230" width="81" height="49" as="geometry" />
        </mxCell>
        <mxCell id="GsQDXdhscdp41sKr75j3-47" style="rounded=0;orthogonalLoop=1;jettySize=auto;html=1;exitX=0.5;exitY=0;exitDx=0;exitDy=0;entryX=0;entryY=1;entryDx=0;entryDy=0;" edge="1" parent="GsQDXdhscdp41sKr75j3-22" source="GsQDXdhscdp41sKr75j3-46" target="GsQDXdhscdp41sKr75j3-23">
          <mxGeometry relative="1" as="geometry">
            <mxPoint x="84.66668701171875" y="174.3333079020183" as="targetPoint" />
          </mxGeometry>
        </mxCell>
        <mxCell id="GsQDXdhscdp41sKr75j3-46" value="grade_xii" style="ellipse;whiteSpace=wrap;html=1;" vertex="1" parent="GsQDXdhscdp41sKr75j3-22">
          <mxGeometry x="-22" y="244" width="81" height="49" as="geometry" />
        </mxCell>
        <mxCell id="GsQDXdhscdp41sKr75j3-210" value="&lt;b&gt;1&lt;/b&gt;" style="text;html=1;align=center;verticalAlign=middle;resizable=0;points=[];autosize=1;strokeColor=none;fillColor=none;" vertex="1" parent="GsQDXdhscdp41sKr75j3-22">
          <mxGeometry x="117" y="121" width="25" height="26" as="geometry" />
        </mxCell>
        <mxCell id="GsQDXdhscdp41sKr75j3-34" style="rounded=0;orthogonalLoop=1;jettySize=auto;html=1;exitX=0;exitY=1;exitDx=0;exitDy=0;" edge="1" parent="GsQDXdhscdp41sKr75j3-52" source="GsQDXdhscdp41sKr75j3-35" target="GsQDXdhscdp41sKr75j3-23">
          <mxGeometry relative="1" as="geometry" />
        </mxCell>
        <mxCell id="GsQDXdhscdp41sKr75j3-27" value="pswd" style="ellipse;whiteSpace=wrap;html=1;" vertex="1" parent="GsQDXdhscdp41sKr75j3-52">
          <mxGeometry x="295" y="27" width="81" height="49" as="geometry" />
        </mxCell>
        <mxCell id="GsQDXdhscdp41sKr75j3-26" style="rounded=0;orthogonalLoop=1;jettySize=auto;html=1;exitX=0.5;exitY=1;exitDx=0;exitDy=0;entryX=0.5;entryY=0;entryDx=0;entryDy=0;" edge="1" parent="GsQDXdhscdp41sKr75j3-52" source="GsQDXdhscdp41sKr75j3-27" target="GsQDXdhscdp41sKr75j3-23">
          <mxGeometry relative="1" as="geometry" />
        </mxCell>
        <mxCell id="GsQDXdhscdp41sKr75j3-29" value="first_name" style="ellipse;whiteSpace=wrap;html=1;" vertex="1" parent="GsQDXdhscdp41sKr75j3-52">
          <mxGeometry x="193" y="23.5" width="96" height="56" as="geometry" />
        </mxCell>
        <mxCell id="GsQDXdhscdp41sKr75j3-28" style="rounded=0;orthogonalLoop=1;jettySize=auto;html=1;exitX=0.5;exitY=1;exitDx=0;exitDy=0;entryX=0.25;entryY=0;entryDx=0;entryDy=0;" edge="1" parent="GsQDXdhscdp41sKr75j3-52" source="GsQDXdhscdp41sKr75j3-29" target="GsQDXdhscdp41sKr75j3-23">
          <mxGeometry relative="1" as="geometry" />
        </mxCell>
        <mxCell id="GsQDXdhscdp41sKr75j3-36" value="&lt;u&gt;&lt;b&gt;imma_id&lt;/b&gt;&lt;/u&gt;" style="ellipse;whiteSpace=wrap;html=1;" vertex="1" parent="GsQDXdhscdp41sKr75j3-52">
          <mxGeometry y="93" width="81" height="49" as="geometry" />
        </mxCell>
        <mxCell id="GsQDXdhscdp41sKr75j3-37" style="rounded=0;orthogonalLoop=1;jettySize=auto;html=1;exitX=0.5;exitY=1;exitDx=0;exitDy=0;entryX=0;entryY=0.25;entryDx=0;entryDy=0;" edge="1" parent="GsQDXdhscdp41sKr75j3-52" source="GsQDXdhscdp41sKr75j3-36" target="GsQDXdhscdp41sKr75j3-23">
          <mxGeometry relative="1" as="geometry">
            <mxPoint x="-136" y="256" as="targetPoint" />
          </mxGeometry>
        </mxCell>
        <mxCell id="GsQDXdhscdp41sKr75j3-31" value="last_name" style="ellipse;whiteSpace=wrap;html=1;" vertex="1" parent="GsQDXdhscdp41sKr75j3-52">
          <mxGeometry x="81" y="48" width="81" height="49" as="geometry" />
        </mxCell>
        <mxCell id="GsQDXdhscdp41sKr75j3-30" style="rounded=0;orthogonalLoop=1;jettySize=auto;html=1;exitX=0.5;exitY=1;exitDx=0;exitDy=0;entryX=0;entryY=0;entryDx=0;entryDy=0;" edge="1" parent="GsQDXdhscdp41sKr75j3-52" source="GsQDXdhscdp41sKr75j3-31" target="GsQDXdhscdp41sKr75j3-23">
          <mxGeometry relative="1" as="geometry" />
        </mxCell>
        <mxCell id="GsQDXdhscdp41sKr75j3-45" style="rounded=0;orthogonalLoop=1;jettySize=auto;html=1;exitX=0.5;exitY=0;exitDx=0;exitDy=0;entryX=1;entryY=0.75;entryDx=0;entryDy=0;" edge="1" parent="GsQDXdhscdp41sKr75j3-52" source="GsQDXdhscdp41sKr75j3-44" target="GsQDXdhscdp41sKr75j3-23">
          <mxGeometry relative="1" as="geometry" />
        </mxCell>
        <mxCell id="GsQDXdhscdp41sKr75j3-44" value="home_address" style="ellipse;whiteSpace=wrap;html=1;" vertex="1" parent="GsQDXdhscdp41sKr75j3-52">
          <mxGeometry x="426" y="328" width="97" height="54" as="geometry" />
        </mxCell>
        <mxCell id="GsQDXdhscdp41sKr75j3-51" style="rounded=0;orthogonalLoop=1;jettySize=auto;html=1;exitX=0;exitY=1;exitDx=0;exitDy=0;entryX=0.75;entryY=0;entryDx=0;entryDy=0;" edge="1" parent="GsQDXdhscdp41sKr75j3-52" source="GsQDXdhscdp41sKr75j3-48" target="GsQDXdhscdp41sKr75j3-23">
          <mxGeometry relative="1" as="geometry" />
        </mxCell>
        <mxCell id="GsQDXdhscdp41sKr75j3-48" value="international_student" style="ellipse;whiteSpace=wrap;html=1;" vertex="1" parent="GsQDXdhscdp41sKr75j3-52">
          <mxGeometry x="418" width="128" height="73" as="geometry" />
        </mxCell>
        <mxCell id="GsQDXdhscdp41sKr75j3-35" value="user_id" style="ellipse;whiteSpace=wrap;html=1;" vertex="1" parent="GsQDXdhscdp41sKr75j3-52">
          <mxGeometry x="413" y="97" width="81" height="49" as="geometry" />
        </mxCell>
        <mxCell id="GsQDXdhscdp41sKr75j3-227" value="&lt;b&gt;1&lt;/b&gt;" style="text;html=1;align=center;verticalAlign=middle;resizable=0;points=[];autosize=1;strokeColor=none;fillColor=none;" vertex="1" parent="GsQDXdhscdp41sKr75j3-52">
          <mxGeometry x="516" y="131" width="25" height="26" as="geometry" />
        </mxCell>
        <mxCell id="GsQDXdhscdp41sKr75j3-56" style="rounded=0;orthogonalLoop=1;jettySize=auto;html=1;exitX=0;exitY=0.5;exitDx=0;exitDy=0;entryX=1;entryY=0.5;entryDx=0;entryDy=0;" edge="1" parent="1" source="GsQDXdhscdp41sKr75j3-53" target="GsQDXdhscdp41sKr75j3-5">
          <mxGeometry relative="1" as="geometry" />
        </mxCell>
        <mxCell id="GsQDXdhscdp41sKr75j3-53" value="&lt;b&gt;PAYS&lt;/b&gt;" style="rhombus;whiteSpace=wrap;html=1;" vertex="1" parent="1">
          <mxGeometry x="-3782" y="-69" width="80" height="80" as="geometry" />
        </mxCell>
        <mxCell id="GsQDXdhscdp41sKr75j3-54" style="rounded=0;orthogonalLoop=1;jettySize=auto;html=1;exitX=0;exitY=0.5;exitDx=0;exitDy=0;entryX=1;entryY=0.5;entryDx=0;entryDy=0;" edge="1" parent="1" source="GsQDXdhscdp41sKr75j3-23" target="GsQDXdhscdp41sKr75j3-53">
          <mxGeometry relative="1" as="geometry" />
        </mxCell>
        <mxCell id="GsQDXdhscdp41sKr75j3-57" value="" style="group" vertex="1" connectable="0" parent="1">
          <mxGeometry x="-4053" y="149" width="574" height="382" as="geometry" />
        </mxCell>
        <mxCell id="GsQDXdhscdp41sKr75j3-58" value="" style="group" vertex="1" connectable="0" parent="GsQDXdhscdp41sKr75j3-57">
          <mxGeometry x="29" y="87" width="368" height="293" as="geometry" />
        </mxCell>
        <mxCell id="GsQDXdhscdp41sKr75j3-59" value="INSTRUCTOR" style="rounded=0;whiteSpace=wrap;html=1;" vertex="1" parent="GsQDXdhscdp41sKr75j3-58">
          <mxGeometry x="146" y="90" width="120" height="60" as="geometry" />
        </mxCell>
        <mxCell id="GsQDXdhscdp41sKr75j3-60" style="rounded=0;orthogonalLoop=1;jettySize=auto;html=1;exitX=0.5;exitY=0;exitDx=0;exitDy=0;entryX=0.75;entryY=1;entryDx=0;entryDy=0;" edge="1" parent="GsQDXdhscdp41sKr75j3-58" source="GsQDXdhscdp41sKr75j3-61" target="GsQDXdhscdp41sKr75j3-59">
          <mxGeometry relative="1" as="geometry" />
        </mxCell>
        <mxCell id="GsQDXdhscdp41sKr75j3-61" value="contact" style="ellipse;whiteSpace=wrap;html=1;" vertex="1" parent="GsQDXdhscdp41sKr75j3-58">
          <mxGeometry x="287" y="215" width="81" height="49" as="geometry" />
        </mxCell>
        <mxCell id="GsQDXdhscdp41sKr75j3-62" style="rounded=0;orthogonalLoop=1;jettySize=auto;html=1;entryX=0.5;entryY=1;entryDx=0;entryDy=0;" edge="1" parent="GsQDXdhscdp41sKr75j3-58" source="GsQDXdhscdp41sKr75j3-63" target="GsQDXdhscdp41sKr75j3-59">
          <mxGeometry relative="1" as="geometry" />
        </mxCell>
        <mxCell id="GsQDXdhscdp41sKr75j3-63" value="email" style="ellipse;whiteSpace=wrap;html=1;" vertex="1" parent="GsQDXdhscdp41sKr75j3-58">
          <mxGeometry x="193" y="222" width="81" height="49" as="geometry" />
        </mxCell>
        <mxCell id="GsQDXdhscdp41sKr75j3-64" style="rounded=0;orthogonalLoop=1;jettySize=auto;html=1;entryX=0.25;entryY=1;entryDx=0;entryDy=0;" edge="1" parent="GsQDXdhscdp41sKr75j3-58" source="GsQDXdhscdp41sKr75j3-65" target="GsQDXdhscdp41sKr75j3-59">
          <mxGeometry relative="1" as="geometry" />
        </mxCell>
        <mxCell id="GsQDXdhscdp41sKr75j3-65" value="dob" style="ellipse;whiteSpace=wrap;html=1;" vertex="1" parent="GsQDXdhscdp41sKr75j3-58">
          <mxGeometry x="92" y="230" width="81" height="49" as="geometry" />
        </mxCell>
        <mxCell id="GsQDXdhscdp41sKr75j3-66" style="rounded=0;orthogonalLoop=1;jettySize=auto;html=1;exitX=0.5;exitY=0;exitDx=0;exitDy=0;entryX=0;entryY=1;entryDx=0;entryDy=0;" edge="1" parent="GsQDXdhscdp41sKr75j3-58" source="GsQDXdhscdp41sKr75j3-67" target="GsQDXdhscdp41sKr75j3-59">
          <mxGeometry relative="1" as="geometry">
            <mxPoint x="84.66668701171875" y="174.3333079020183" as="targetPoint" />
          </mxGeometry>
        </mxCell>
        <mxCell id="GsQDXdhscdp41sKr75j3-67" value="hft_cabin" style="ellipse;whiteSpace=wrap;html=1;" vertex="1" parent="GsQDXdhscdp41sKr75j3-58">
          <mxGeometry x="-22" y="244" width="81" height="49" as="geometry" />
        </mxCell>
        <mxCell id="GsQDXdhscdp41sKr75j3-68" style="rounded=0;orthogonalLoop=1;jettySize=auto;html=1;exitX=0;exitY=1;exitDx=0;exitDy=0;" edge="1" parent="GsQDXdhscdp41sKr75j3-57" source="GsQDXdhscdp41sKr75j3-81" target="GsQDXdhscdp41sKr75j3-59">
          <mxGeometry relative="1" as="geometry" />
        </mxCell>
        <mxCell id="GsQDXdhscdp41sKr75j3-69" value="pswd" style="ellipse;whiteSpace=wrap;html=1;" vertex="1" parent="GsQDXdhscdp41sKr75j3-57">
          <mxGeometry x="295" y="27" width="81" height="49" as="geometry" />
        </mxCell>
        <mxCell id="GsQDXdhscdp41sKr75j3-70" style="rounded=0;orthogonalLoop=1;jettySize=auto;html=1;exitX=0.5;exitY=1;exitDx=0;exitDy=0;entryX=0.5;entryY=0;entryDx=0;entryDy=0;" edge="1" parent="GsQDXdhscdp41sKr75j3-57" source="GsQDXdhscdp41sKr75j3-69" target="GsQDXdhscdp41sKr75j3-59">
          <mxGeometry relative="1" as="geometry" />
        </mxCell>
        <mxCell id="GsQDXdhscdp41sKr75j3-71" value="first_name" style="ellipse;whiteSpace=wrap;html=1;" vertex="1" parent="GsQDXdhscdp41sKr75j3-57">
          <mxGeometry x="193" y="23.5" width="96" height="56" as="geometry" />
        </mxCell>
        <mxCell id="GsQDXdhscdp41sKr75j3-72" style="rounded=0;orthogonalLoop=1;jettySize=auto;html=1;exitX=0.5;exitY=1;exitDx=0;exitDy=0;entryX=0.25;entryY=0;entryDx=0;entryDy=0;" edge="1" parent="GsQDXdhscdp41sKr75j3-57" source="GsQDXdhscdp41sKr75j3-71" target="GsQDXdhscdp41sKr75j3-59">
          <mxGeometry relative="1" as="geometry" />
        </mxCell>
        <mxCell id="GsQDXdhscdp41sKr75j3-73" value="&lt;u&gt;&lt;b&gt;emp_id&lt;/b&gt;&lt;/u&gt;" style="ellipse;whiteSpace=wrap;html=1;" vertex="1" parent="GsQDXdhscdp41sKr75j3-57">
          <mxGeometry y="93" width="81" height="49" as="geometry" />
        </mxCell>
        <mxCell id="GsQDXdhscdp41sKr75j3-74" style="rounded=0;orthogonalLoop=1;jettySize=auto;html=1;exitX=0.5;exitY=1;exitDx=0;exitDy=0;entryX=0;entryY=0.25;entryDx=0;entryDy=0;" edge="1" parent="GsQDXdhscdp41sKr75j3-57" source="GsQDXdhscdp41sKr75j3-73" target="GsQDXdhscdp41sKr75j3-59">
          <mxGeometry relative="1" as="geometry">
            <mxPoint x="-136" y="256" as="targetPoint" />
          </mxGeometry>
        </mxCell>
        <mxCell id="GsQDXdhscdp41sKr75j3-75" value="last_name" style="ellipse;whiteSpace=wrap;html=1;" vertex="1" parent="GsQDXdhscdp41sKr75j3-57">
          <mxGeometry x="81" y="48" width="81" height="49" as="geometry" />
        </mxCell>
        <mxCell id="GsQDXdhscdp41sKr75j3-76" style="rounded=0;orthogonalLoop=1;jettySize=auto;html=1;exitX=0.5;exitY=1;exitDx=0;exitDy=0;entryX=0;entryY=0;entryDx=0;entryDy=0;" edge="1" parent="GsQDXdhscdp41sKr75j3-57" source="GsQDXdhscdp41sKr75j3-75" target="GsQDXdhscdp41sKr75j3-59">
          <mxGeometry relative="1" as="geometry" />
        </mxCell>
        <mxCell id="GsQDXdhscdp41sKr75j3-77" style="rounded=0;orthogonalLoop=1;jettySize=auto;html=1;exitX=0.5;exitY=0;exitDx=0;exitDy=0;entryX=1;entryY=0.75;entryDx=0;entryDy=0;" edge="1" parent="GsQDXdhscdp41sKr75j3-57" source="GsQDXdhscdp41sKr75j3-78" target="GsQDXdhscdp41sKr75j3-59">
          <mxGeometry relative="1" as="geometry" />
        </mxCell>
        <mxCell id="GsQDXdhscdp41sKr75j3-78" value="home_address" style="ellipse;whiteSpace=wrap;html=1;" vertex="1" parent="GsQDXdhscdp41sKr75j3-57">
          <mxGeometry x="426" y="328" width="97" height="54" as="geometry" />
        </mxCell>
        <mxCell id="GsQDXdhscdp41sKr75j3-81" value="user_id" style="ellipse;whiteSpace=wrap;html=1;" vertex="1" parent="GsQDXdhscdp41sKr75j3-57">
          <mxGeometry x="361" y="72" width="81" height="49" as="geometry" />
        </mxCell>
        <mxCell id="GsQDXdhscdp41sKr75j3-83" value="" style="group" vertex="1" connectable="0" parent="1">
          <mxGeometry x="-3046" y="-118" width="585" height="382" as="geometry" />
        </mxCell>
        <mxCell id="GsQDXdhscdp41sKr75j3-84" value="" style="group" vertex="1" connectable="0" parent="GsQDXdhscdp41sKr75j3-83">
          <mxGeometry x="29" y="87" width="368" height="293" as="geometry" />
        </mxCell>
        <mxCell id="GsQDXdhscdp41sKr75j3-85" value="ENROLLMENT" style="rounded=0;whiteSpace=wrap;html=1;" vertex="1" parent="GsQDXdhscdp41sKr75j3-84">
          <mxGeometry x="146" y="90" width="120" height="60" as="geometry" />
        </mxCell>
        <mxCell id="GsQDXdhscdp41sKr75j3-88" style="rounded=0;orthogonalLoop=1;jettySize=auto;html=1;entryX=0.75;entryY=1;entryDx=0;entryDy=0;" edge="1" parent="GsQDXdhscdp41sKr75j3-84" source="GsQDXdhscdp41sKr75j3-89" target="GsQDXdhscdp41sKr75j3-85">
          <mxGeometry relative="1" as="geometry" />
        </mxCell>
        <mxCell id="GsQDXdhscdp41sKr75j3-89" value="imma_status" style="ellipse;whiteSpace=wrap;html=1;" vertex="1" parent="GsQDXdhscdp41sKr75j3-84">
          <mxGeometry x="225" y="201" width="81" height="49" as="geometry" />
        </mxCell>
        <mxCell id="GsQDXdhscdp41sKr75j3-90" style="rounded=0;orthogonalLoop=1;jettySize=auto;html=1;entryX=0.25;entryY=1;entryDx=0;entryDy=0;" edge="1" parent="GsQDXdhscdp41sKr75j3-84" source="GsQDXdhscdp41sKr75j3-91" target="GsQDXdhscdp41sKr75j3-85">
          <mxGeometry relative="1" as="geometry" />
        </mxCell>
        <mxCell id="GsQDXdhscdp41sKr75j3-91" value="imma_date" style="ellipse;whiteSpace=wrap;html=1;" vertex="1" parent="GsQDXdhscdp41sKr75j3-84">
          <mxGeometry x="93" y="197" width="81" height="49" as="geometry" />
        </mxCell>
        <mxCell id="GsQDXdhscdp41sKr75j3-226" value="&lt;b&gt;1&lt;/b&gt;" style="text;html=1;align=center;verticalAlign=middle;resizable=0;points=[];autosize=1;strokeColor=none;fillColor=none;" vertex="1" parent="GsQDXdhscdp41sKr75j3-84">
          <mxGeometry x="107" y="82" width="25" height="26" as="geometry" />
        </mxCell>
        <mxCell id="GsQDXdhscdp41sKr75j3-97" value="course_id" style="ellipse;whiteSpace=wrap;html=1;" vertex="1" parent="GsQDXdhscdp41sKr75j3-83">
          <mxGeometry x="273" y="44.5" width="96" height="56" as="geometry" />
        </mxCell>
        <mxCell id="GsQDXdhscdp41sKr75j3-98" style="rounded=0;orthogonalLoop=1;jettySize=auto;html=1;exitX=0.5;exitY=1;exitDx=0;exitDy=0;entryX=0.75;entryY=0;entryDx=0;entryDy=0;" edge="1" parent="GsQDXdhscdp41sKr75j3-83" source="GsQDXdhscdp41sKr75j3-97" target="GsQDXdhscdp41sKr75j3-85">
          <mxGeometry relative="1" as="geometry" />
        </mxCell>
        <mxCell id="GsQDXdhscdp41sKr75j3-99" value="&lt;u&gt;&lt;b&gt;imma_id&lt;/b&gt;&lt;/u&gt;" style="ellipse;whiteSpace=wrap;html=1;" vertex="1" parent="GsQDXdhscdp41sKr75j3-83">
          <mxGeometry x="89" y="44.5" width="81" height="49" as="geometry" />
        </mxCell>
        <mxCell id="GsQDXdhscdp41sKr75j3-100" style="rounded=0;orthogonalLoop=1;jettySize=auto;html=1;exitX=0.5;exitY=1;exitDx=0;exitDy=0;entryX=0.25;entryY=0;entryDx=0;entryDy=0;" edge="1" parent="GsQDXdhscdp41sKr75j3-83" source="GsQDXdhscdp41sKr75j3-99" target="GsQDXdhscdp41sKr75j3-85">
          <mxGeometry relative="1" as="geometry">
            <mxPoint x="-136" y="256" as="targetPoint" />
          </mxGeometry>
        </mxCell>
        <mxCell id="GsQDXdhscdp41sKr75j3-101" value="dept_id" style="ellipse;whiteSpace=wrap;html=1;" vertex="1" parent="GsQDXdhscdp41sKr75j3-83">
          <mxGeometry x="185" y="28" width="81" height="49" as="geometry" />
        </mxCell>
        <mxCell id="GsQDXdhscdp41sKr75j3-102" style="rounded=0;orthogonalLoop=1;jettySize=auto;html=1;exitX=0.5;exitY=1;exitDx=0;exitDy=0;entryX=0.5;entryY=0;entryDx=0;entryDy=0;" edge="1" parent="GsQDXdhscdp41sKr75j3-83" source="GsQDXdhscdp41sKr75j3-101" target="GsQDXdhscdp41sKr75j3-85">
          <mxGeometry relative="1" as="geometry" />
        </mxCell>
        <mxCell id="GsQDXdhscdp41sKr75j3-207" value="&lt;b&gt;RESULTS&lt;/b&gt;" style="rhombus;whiteSpace=wrap;html=1;" vertex="1" parent="GsQDXdhscdp41sKr75j3-83">
          <mxGeometry x="505" y="20.5" width="80" height="80" as="geometry" />
        </mxCell>
        <mxCell id="GsQDXdhscdp41sKr75j3-112" style="rounded=0;orthogonalLoop=1;jettySize=auto;html=1;exitX=1;exitY=0.5;exitDx=0;exitDy=0;entryX=0;entryY=0.5;entryDx=0;entryDy=0;" edge="1" parent="1" source="GsQDXdhscdp41sKr75j3-110" target="GsQDXdhscdp41sKr75j3-85">
          <mxGeometry relative="1" as="geometry" />
        </mxCell>
        <mxCell id="GsQDXdhscdp41sKr75j3-110" value="&lt;b&gt;ENROLS&lt;/b&gt;" style="rhombus;whiteSpace=wrap;html=1;" vertex="1" parent="1">
          <mxGeometry x="-3168" y="-78" width="80" height="80" as="geometry" />
        </mxCell>
        <mxCell id="GsQDXdhscdp41sKr75j3-111" style="rounded=0;orthogonalLoop=1;jettySize=auto;html=1;exitX=1;exitY=0.5;exitDx=0;exitDy=0;entryX=0;entryY=0.5;entryDx=0;entryDy=0;" edge="1" parent="1" source="GsQDXdhscdp41sKr75j3-23" target="GsQDXdhscdp41sKr75j3-110">
          <mxGeometry relative="1" as="geometry" />
        </mxCell>
        <mxCell id="GsQDXdhscdp41sKr75j3-113" value="" style="group" vertex="1" connectable="0" parent="1">
          <mxGeometry x="-3506" y="162" width="546" height="382" as="geometry" />
        </mxCell>
        <mxCell id="GsQDXdhscdp41sKr75j3-114" value="" style="group" vertex="1" connectable="0" parent="GsQDXdhscdp41sKr75j3-113">
          <mxGeometry x="10" y="9" width="368" height="293" as="geometry" />
        </mxCell>
        <mxCell id="GsQDXdhscdp41sKr75j3-115" value="DEPARTMENT" style="rounded=0;whiteSpace=wrap;html=1;" vertex="1" parent="GsQDXdhscdp41sKr75j3-114">
          <mxGeometry x="146" y="90" width="120" height="60" as="geometry" />
        </mxCell>
        <mxCell id="GsQDXdhscdp41sKr75j3-116" style="rounded=0;orthogonalLoop=1;jettySize=auto;html=1;entryX=0.397;entryY=0.974;entryDx=0;entryDy=0;entryPerimeter=0;" edge="1" parent="GsQDXdhscdp41sKr75j3-114" source="GsQDXdhscdp41sKr75j3-117" target="GsQDXdhscdp41sKr75j3-115">
          <mxGeometry relative="1" as="geometry" />
        </mxCell>
        <mxCell id="GsQDXdhscdp41sKr75j3-117" value="dept_name" style="ellipse;whiteSpace=wrap;html=1;" vertex="1" parent="GsQDXdhscdp41sKr75j3-114">
          <mxGeometry x="154" y="191" width="81" height="49" as="geometry" />
        </mxCell>
        <mxCell id="GsQDXdhscdp41sKr75j3-124" value="dean_id*" style="ellipse;whiteSpace=wrap;html=1;" vertex="1" parent="GsQDXdhscdp41sKr75j3-114">
          <mxGeometry x="203" y="-3" width="81" height="49" as="geometry" />
        </mxCell>
        <mxCell id="GsQDXdhscdp41sKr75j3-125" style="rounded=0;orthogonalLoop=1;jettySize=auto;html=1;exitX=0.5;exitY=1;exitDx=0;exitDy=0;entryX=0.5;entryY=0;entryDx=0;entryDy=0;" edge="1" parent="GsQDXdhscdp41sKr75j3-114" source="GsQDXdhscdp41sKr75j3-124" target="GsQDXdhscdp41sKr75j3-115">
          <mxGeometry relative="1" as="geometry" />
        </mxCell>
        <mxCell id="GsQDXdhscdp41sKr75j3-122" value="&lt;u&gt;&lt;b&gt;dept_id&lt;/b&gt;&lt;/u&gt;" style="ellipse;whiteSpace=wrap;html=1;" vertex="1" parent="GsQDXdhscdp41sKr75j3-114">
          <mxGeometry x="102" width="81" height="49" as="geometry" />
        </mxCell>
        <mxCell id="GsQDXdhscdp41sKr75j3-123" style="rounded=0;orthogonalLoop=1;jettySize=auto;html=1;exitX=0.5;exitY=1;exitDx=0;exitDy=0;entryX=0.25;entryY=0;entryDx=0;entryDy=0;" edge="1" parent="GsQDXdhscdp41sKr75j3-114" source="GsQDXdhscdp41sKr75j3-122" target="GsQDXdhscdp41sKr75j3-115">
          <mxGeometry relative="1" as="geometry">
            <mxPoint x="-165" y="169" as="targetPoint" />
          </mxGeometry>
        </mxCell>
        <mxCell id="GsQDXdhscdp41sKr75j3-132" value="&lt;b&gt;REGISTERED&lt;/b&gt;" style="rhombus;whiteSpace=wrap;html=1;" vertex="1" parent="GsQDXdhscdp41sKr75j3-113">
          <mxGeometry x="426" y="-20" width="114" height="100" as="geometry" />
        </mxCell>
        <mxCell id="GsQDXdhscdp41sKr75j3-134" style="rounded=0;orthogonalLoop=1;jettySize=auto;html=1;exitX=0;exitY=0.5;exitDx=0;exitDy=0;entryX=1;entryY=0.5;entryDx=0;entryDy=0;" edge="1" parent="GsQDXdhscdp41sKr75j3-113" source="GsQDXdhscdp41sKr75j3-132" target="GsQDXdhscdp41sKr75j3-115">
          <mxGeometry relative="1" as="geometry" />
        </mxCell>
        <mxCell id="GsQDXdhscdp41sKr75j3-153" value="&lt;b&gt;CONTAINS&lt;/b&gt;" style="rhombus;whiteSpace=wrap;html=1;" vertex="1" parent="GsQDXdhscdp41sKr75j3-113">
          <mxGeometry x="426" y="173" width="114" height="100" as="geometry" />
        </mxCell>
        <mxCell id="GsQDXdhscdp41sKr75j3-154" style="rounded=0;orthogonalLoop=1;jettySize=auto;html=1;exitX=1;exitY=0.75;exitDx=0;exitDy=0;entryX=0;entryY=0.5;entryDx=0;entryDy=0;" edge="1" parent="GsQDXdhscdp41sKr75j3-113" source="GsQDXdhscdp41sKr75j3-115" target="GsQDXdhscdp41sKr75j3-153">
          <mxGeometry relative="1" as="geometry" />
        </mxCell>
        <mxCell id="GsQDXdhscdp41sKr75j3-129" value="&lt;b&gt;REGISTERED&lt;/b&gt;" style="rhombus;whiteSpace=wrap;html=1;" vertex="1" parent="GsQDXdhscdp41sKr75j3-113">
          <mxGeometry x="-62" y="128" width="114" height="100" as="geometry" />
        </mxCell>
        <mxCell id="GsQDXdhscdp41sKr75j3-215" style="rounded=0;orthogonalLoop=1;jettySize=auto;html=1;exitX=0;exitY=0.5;exitDx=0;exitDy=0;entryX=1;entryY=0.5;entryDx=0;entryDy=0;" edge="1" parent="GsQDXdhscdp41sKr75j3-113" source="GsQDXdhscdp41sKr75j3-115" target="GsQDXdhscdp41sKr75j3-129">
          <mxGeometry relative="1" as="geometry" />
        </mxCell>
        <mxCell id="GsQDXdhscdp41sKr75j3-133" style="rounded=0;orthogonalLoop=1;jettySize=auto;html=1;exitX=0;exitY=0.75;exitDx=0;exitDy=0;entryX=1;entryY=0.5;entryDx=0;entryDy=0;" edge="1" parent="1" source="GsQDXdhscdp41sKr75j3-85" target="GsQDXdhscdp41sKr75j3-132">
          <mxGeometry relative="1" as="geometry" />
        </mxCell>
        <mxCell id="GsQDXdhscdp41sKr75j3-136" value="" style="group" vertex="1" connectable="0" parent="1">
          <mxGeometry x="-2898" y="230" width="546" height="394" as="geometry" />
        </mxCell>
        <mxCell id="GsQDXdhscdp41sKr75j3-137" value="" style="group" vertex="1" connectable="0" parent="GsQDXdhscdp41sKr75j3-136">
          <mxGeometry x="29" y="87" width="368" height="307" as="geometry" />
        </mxCell>
        <mxCell id="GsQDXdhscdp41sKr75j3-138" value="COURSE" style="rounded=0;whiteSpace=wrap;html=1;" vertex="1" parent="GsQDXdhscdp41sKr75j3-137">
          <mxGeometry x="146" y="90" width="120" height="60" as="geometry" />
        </mxCell>
        <mxCell id="GsQDXdhscdp41sKr75j3-139" style="rounded=0;orthogonalLoop=1;jettySize=auto;html=1;entryX=0.75;entryY=1;entryDx=0;entryDy=0;" edge="1" parent="GsQDXdhscdp41sKr75j3-137" source="GsQDXdhscdp41sKr75j3-140" target="GsQDXdhscdp41sKr75j3-138">
          <mxGeometry relative="1" as="geometry" />
        </mxCell>
        <mxCell id="GsQDXdhscdp41sKr75j3-140" value="course_name" style="ellipse;whiteSpace=wrap;html=1;" vertex="1" parent="GsQDXdhscdp41sKr75j3-137">
          <mxGeometry x="278" y="204" width="81" height="49" as="geometry" />
        </mxCell>
        <mxCell id="GsQDXdhscdp41sKr75j3-141" style="rounded=0;orthogonalLoop=1;jettySize=auto;html=1;entryX=0.25;entryY=1;entryDx=0;entryDy=0;" edge="1" parent="GsQDXdhscdp41sKr75j3-137" source="GsQDXdhscdp41sKr75j3-142" target="GsQDXdhscdp41sKr75j3-138">
          <mxGeometry relative="1" as="geometry" />
        </mxCell>
        <mxCell id="GsQDXdhscdp41sKr75j3-142" value="credits" style="ellipse;whiteSpace=wrap;html=1;" vertex="1" parent="GsQDXdhscdp41sKr75j3-137">
          <mxGeometry x="55" y="201" width="81" height="52" as="geometry" />
        </mxCell>
        <mxCell id="GsQDXdhscdp41sKr75j3-150" style="rounded=0;orthogonalLoop=1;jettySize=auto;html=1;exitX=0.5;exitY=0;exitDx=0;exitDy=0;" edge="1" parent="GsQDXdhscdp41sKr75j3-137" source="GsQDXdhscdp41sKr75j3-149" target="GsQDXdhscdp41sKr75j3-138">
          <mxGeometry relative="1" as="geometry" />
        </mxCell>
        <mxCell id="GsQDXdhscdp41sKr75j3-149" value="building_no" style="ellipse;whiteSpace=wrap;html=1;" vertex="1" parent="GsQDXdhscdp41sKr75j3-137">
          <mxGeometry x="119" y="263" width="81" height="49" as="geometry" />
        </mxCell>
        <mxCell id="GsQDXdhscdp41sKr75j3-152" style="rounded=0;orthogonalLoop=1;jettySize=auto;html=1;" edge="1" parent="GsQDXdhscdp41sKr75j3-137" source="GsQDXdhscdp41sKr75j3-151" target="GsQDXdhscdp41sKr75j3-138">
          <mxGeometry relative="1" as="geometry" />
        </mxCell>
        <mxCell id="GsQDXdhscdp41sKr75j3-151" value="room_no" style="ellipse;whiteSpace=wrap;html=1;" vertex="1" parent="GsQDXdhscdp41sKr75j3-137">
          <mxGeometry x="215" y="267" width="81" height="49" as="geometry" />
        </mxCell>
        <mxCell id="GsQDXdhscdp41sKr75j3-143" value="&lt;b&gt;&lt;u&gt;course_id&lt;/u&gt;&lt;/b&gt;" style="ellipse;whiteSpace=wrap;html=1;" vertex="1" parent="GsQDXdhscdp41sKr75j3-136">
          <mxGeometry x="273" y="44.5" width="96" height="56" as="geometry" />
        </mxCell>
        <mxCell id="GsQDXdhscdp41sKr75j3-144" style="rounded=0;orthogonalLoop=1;jettySize=auto;html=1;exitX=0.5;exitY=1;exitDx=0;exitDy=0;entryX=0.75;entryY=0;entryDx=0;entryDy=0;" edge="1" parent="GsQDXdhscdp41sKr75j3-136" source="GsQDXdhscdp41sKr75j3-143" target="GsQDXdhscdp41sKr75j3-138">
          <mxGeometry relative="1" as="geometry" />
        </mxCell>
        <mxCell id="GsQDXdhscdp41sKr75j3-145" value="instructor_id" style="ellipse;whiteSpace=wrap;html=1;" vertex="1" parent="GsQDXdhscdp41sKr75j3-136">
          <mxGeometry x="89" y="44.5" width="81" height="49" as="geometry" />
        </mxCell>
        <mxCell id="GsQDXdhscdp41sKr75j3-146" style="rounded=0;orthogonalLoop=1;jettySize=auto;html=1;exitX=0.5;exitY=1;exitDx=0;exitDy=0;entryX=0.25;entryY=0;entryDx=0;entryDy=0;" edge="1" parent="GsQDXdhscdp41sKr75j3-136" source="GsQDXdhscdp41sKr75j3-145" target="GsQDXdhscdp41sKr75j3-138">
          <mxGeometry relative="1" as="geometry">
            <mxPoint x="-136" y="256" as="targetPoint" />
          </mxGeometry>
        </mxCell>
        <mxCell id="GsQDXdhscdp41sKr75j3-147" value="dept_id" style="ellipse;whiteSpace=wrap;html=1;" vertex="1" parent="GsQDXdhscdp41sKr75j3-136">
          <mxGeometry x="185" y="28" width="81" height="49" as="geometry" />
        </mxCell>
        <mxCell id="GsQDXdhscdp41sKr75j3-148" style="rounded=0;orthogonalLoop=1;jettySize=auto;html=1;exitX=0.5;exitY=1;exitDx=0;exitDy=0;entryX=0.5;entryY=0;entryDx=0;entryDy=0;" edge="1" parent="GsQDXdhscdp41sKr75j3-136" source="GsQDXdhscdp41sKr75j3-147" target="GsQDXdhscdp41sKr75j3-138">
          <mxGeometry relative="1" as="geometry" />
        </mxCell>
        <mxCell id="GsQDXdhscdp41sKr75j3-204" value="&lt;b&gt;CONTAINS&lt;/b&gt;" style="rhombus;whiteSpace=wrap;html=1;" vertex="1" parent="GsQDXdhscdp41sKr75j3-136">
          <mxGeometry x="458" y="84" width="80" height="80" as="geometry" />
        </mxCell>
        <mxCell id="GsQDXdhscdp41sKr75j3-205" style="rounded=0;orthogonalLoop=1;jettySize=auto;html=1;exitX=1;exitY=0.5;exitDx=0;exitDy=0;entryX=0;entryY=0.5;entryDx=0;entryDy=0;" edge="1" parent="GsQDXdhscdp41sKr75j3-136" source="GsQDXdhscdp41sKr75j3-138" target="GsQDXdhscdp41sKr75j3-204">
          <mxGeometry relative="1" as="geometry" />
        </mxCell>
        <mxCell id="GsQDXdhscdp41sKr75j3-155" style="rounded=0;orthogonalLoop=1;jettySize=auto;html=1;exitX=1;exitY=0.5;exitDx=0;exitDy=0;entryX=0;entryY=0.5;entryDx=0;entryDy=0;" edge="1" parent="1" source="GsQDXdhscdp41sKr75j3-153" target="GsQDXdhscdp41sKr75j3-138">
          <mxGeometry relative="1" as="geometry" />
        </mxCell>
        <mxCell id="GsQDXdhscdp41sKr75j3-158" style="rounded=0;orthogonalLoop=1;jettySize=auto;html=1;exitX=1;exitY=0.5;exitDx=0;exitDy=0;entryX=0;entryY=0.5;entryDx=0;entryDy=0;" edge="1" parent="1" source="GsQDXdhscdp41sKr75j3-156" target="GsQDXdhscdp41sKr75j3-138">
          <mxGeometry relative="1" as="geometry" />
        </mxCell>
        <mxCell id="GsQDXdhscdp41sKr75j3-156" value="&lt;b&gt;TAKES&lt;/b&gt;" style="rhombus;whiteSpace=wrap;html=1;" vertex="1" parent="1">
          <mxGeometry x="-3290" y="516" width="114" height="100" as="geometry" />
        </mxCell>
        <mxCell id="GsQDXdhscdp41sKr75j3-157" style="rounded=0;orthogonalLoop=1;jettySize=auto;html=1;exitX=1;exitY=0.5;exitDx=0;exitDy=0;entryX=0.019;entryY=0.545;entryDx=0;entryDy=0;entryPerimeter=0;" edge="1" parent="1" source="GsQDXdhscdp41sKr75j3-59" target="GsQDXdhscdp41sKr75j3-156">
          <mxGeometry relative="1" as="geometry" />
        </mxCell>
        <mxCell id="GsQDXdhscdp41sKr75j3-159" value="" style="group;rotation=0;" vertex="1" connectable="0" parent="1">
          <mxGeometry x="-2896" y="-598" width="586" height="396" as="geometry" />
        </mxCell>
        <mxCell id="GsQDXdhscdp41sKr75j3-160" value="" style="group;rotation=0;" vertex="1" connectable="0" parent="GsQDXdhscdp41sKr75j3-159">
          <mxGeometry x="29" y="87" width="557" height="308.55837563451774" as="geometry" />
        </mxCell>
        <mxCell id="GsQDXdhscdp41sKr75j3-161" value="GRADES" style="rounded=0;whiteSpace=wrap;html=1;rotation=0;" vertex="1" parent="GsQDXdhscdp41sKr75j3-160">
          <mxGeometry x="84" y="226" width="120" height="60.304568527918775" as="geometry" />
        </mxCell>
        <mxCell id="GsQDXdhscdp41sKr75j3-170" value="&lt;b&gt;&lt;u&gt;course_id&lt;/u&gt;&lt;/b&gt;" style="ellipse;whiteSpace=wrap;html=1;rotation=0;" vertex="1" parent="GsQDXdhscdp41sKr75j3-160">
          <mxGeometry x="398" y="166" width="96" height="56.284263959390856" as="geometry" />
        </mxCell>
        <mxCell id="GsQDXdhscdp41sKr75j3-171" style="rounded=0;orthogonalLoop=1;jettySize=auto;html=1;exitX=0.5;exitY=1;exitDx=0;exitDy=0;entryX=1;entryY=0.75;entryDx=0;entryDy=0;" edge="1" parent="GsQDXdhscdp41sKr75j3-160" source="GsQDXdhscdp41sKr75j3-170" target="GsQDXdhscdp41sKr75j3-161">
          <mxGeometry relative="1" as="geometry" />
        </mxCell>
        <mxCell id="GsQDXdhscdp41sKr75j3-174" value="semester" style="ellipse;whiteSpace=wrap;html=1;rotation=0;" vertex="1" parent="GsQDXdhscdp41sKr75j3-160">
          <mxGeometry x="340" y="107" width="81" height="49.248730964467" as="geometry" />
        </mxCell>
        <mxCell id="GsQDXdhscdp41sKr75j3-175" style="rounded=0;orthogonalLoop=1;jettySize=auto;html=1;exitX=0.5;exitY=1;exitDx=0;exitDy=0;entryX=1;entryY=0.5;entryDx=0;entryDy=0;" edge="1" parent="GsQDXdhscdp41sKr75j3-160" source="GsQDXdhscdp41sKr75j3-174" target="GsQDXdhscdp41sKr75j3-161">
          <mxGeometry relative="1" as="geometry" />
        </mxCell>
        <mxCell id="GsQDXdhscdp41sKr75j3-179" style="rounded=0;orthogonalLoop=1;jettySize=auto;html=1;exitX=0;exitY=0.5;exitDx=0;exitDy=0;entryX=1;entryY=0.25;entryDx=0;entryDy=0;" edge="1" parent="GsQDXdhscdp41sKr75j3-160" source="GsQDXdhscdp41sKr75j3-178" target="GsQDXdhscdp41sKr75j3-161">
          <mxGeometry relative="1" as="geometry" />
        </mxCell>
        <mxCell id="GsQDXdhscdp41sKr75j3-178" value="grade 6" style="ellipse;whiteSpace=wrap;html=1;rotation=0;" vertex="1" parent="GsQDXdhscdp41sKr75j3-160">
          <mxGeometry x="354" y="41" width="81" height="49.248730964467" as="geometry" />
        </mxCell>
        <mxCell id="GsQDXdhscdp41sKr75j3-176" value="grade 1" style="ellipse;whiteSpace=wrap;html=1;rotation=0;" vertex="1" parent="GsQDXdhscdp41sKr75j3-160">
          <mxGeometry x="-96" y="29" width="94" height="58.294416243654815" as="geometry" />
        </mxCell>
        <mxCell id="GsQDXdhscdp41sKr75j3-177" style="rounded=0;orthogonalLoop=1;jettySize=auto;html=1;entryX=0;entryY=0;entryDx=0;entryDy=0;" edge="1" parent="GsQDXdhscdp41sKr75j3-160" source="GsQDXdhscdp41sKr75j3-176" target="GsQDXdhscdp41sKr75j3-161">
          <mxGeometry relative="1" as="geometry" />
        </mxCell>
        <mxCell id="GsQDXdhscdp41sKr75j3-165" value="grade 2" style="ellipse;whiteSpace=wrap;html=1;rotation=0;" vertex="1" parent="GsQDXdhscdp41sKr75j3-160">
          <mxGeometry x="-5" y="-16" width="81" height="52.26395939086294" as="geometry" />
        </mxCell>
        <mxCell id="GsQDXdhscdp41sKr75j3-164" style="rounded=0;orthogonalLoop=1;jettySize=auto;html=1;entryX=0.25;entryY=0;entryDx=0;entryDy=0;" edge="1" parent="GsQDXdhscdp41sKr75j3-160" source="GsQDXdhscdp41sKr75j3-165" target="GsQDXdhscdp41sKr75j3-161">
          <mxGeometry relative="1" as="geometry" />
        </mxCell>
        <mxCell id="GsQDXdhscdp41sKr75j3-167" value="grade 3" style="ellipse;whiteSpace=wrap;html=1;rotation=0;" vertex="1" parent="GsQDXdhscdp41sKr75j3-160">
          <mxGeometry x="91" y="-36" width="81" height="49.248730964467" as="geometry" />
        </mxCell>
        <mxCell id="GsQDXdhscdp41sKr75j3-166" style="rounded=0;orthogonalLoop=1;jettySize=auto;html=1;exitX=0.5;exitY=1;exitDx=0;exitDy=0;" edge="1" parent="GsQDXdhscdp41sKr75j3-160" source="GsQDXdhscdp41sKr75j3-167" target="GsQDXdhscdp41sKr75j3-161">
          <mxGeometry relative="1" as="geometry" />
        </mxCell>
        <mxCell id="GsQDXdhscdp41sKr75j3-169" value="grade 4" style="ellipse;whiteSpace=wrap;html=1;rotation=0;" vertex="1" parent="GsQDXdhscdp41sKr75j3-160">
          <mxGeometry x="197" y="-46" width="81" height="49.248730964467" as="geometry" />
        </mxCell>
        <mxCell id="GsQDXdhscdp41sKr75j3-168" style="rounded=0;orthogonalLoop=1;jettySize=auto;html=1;" edge="1" parent="GsQDXdhscdp41sKr75j3-160" source="GsQDXdhscdp41sKr75j3-169" target="GsQDXdhscdp41sKr75j3-161">
          <mxGeometry relative="1" as="geometry" />
        </mxCell>
        <mxCell id="GsQDXdhscdp41sKr75j3-163" value="grade 5" style="ellipse;whiteSpace=wrap;html=1;rotation=0;" vertex="1" parent="GsQDXdhscdp41sKr75j3-160">
          <mxGeometry x="276" y="-20" width="81" height="49.248730964467" as="geometry" />
        </mxCell>
        <mxCell id="GsQDXdhscdp41sKr75j3-162" style="rounded=0;orthogonalLoop=1;jettySize=auto;html=1;entryX=0.75;entryY=0;entryDx=0;entryDy=0;" edge="1" parent="GsQDXdhscdp41sKr75j3-160" source="GsQDXdhscdp41sKr75j3-163" target="GsQDXdhscdp41sKr75j3-161">
          <mxGeometry relative="1" as="geometry" />
        </mxCell>
        <mxCell id="GsQDXdhscdp41sKr75j3-172" value="&lt;b&gt;&lt;u&gt;student_id&lt;/u&gt;&lt;/b&gt;" style="ellipse;whiteSpace=wrap;html=1;rotation=0;" vertex="1" parent="GsQDXdhscdp41sKr75j3-160">
          <mxGeometry x="-136" y="112" width="81" height="49.248730964467" as="geometry" />
        </mxCell>
        <mxCell id="GsQDXdhscdp41sKr75j3-173" style="rounded=0;orthogonalLoop=1;jettySize=auto;html=1;exitX=0.5;exitY=1;exitDx=0;exitDy=0;entryX=0;entryY=0.75;entryDx=0;entryDy=0;" edge="1" parent="GsQDXdhscdp41sKr75j3-160" source="GsQDXdhscdp41sKr75j3-172" target="GsQDXdhscdp41sKr75j3-161">
          <mxGeometry relative="1" as="geometry">
            <mxPoint x="-227" y="306" as="targetPoint" />
          </mxGeometry>
        </mxCell>
        <mxCell id="GsQDXdhscdp41sKr75j3-182" style="rounded=0;orthogonalLoop=1;jettySize=auto;html=1;exitX=1;exitY=0.5;exitDx=0;exitDy=0;entryX=0;entryY=1;entryDx=0;entryDy=0;" edge="1" parent="1" source="GsQDXdhscdp41sKr75j3-180" target="GsQDXdhscdp41sKr75j3-161">
          <mxGeometry relative="1" as="geometry" />
        </mxCell>
        <mxCell id="GsQDXdhscdp41sKr75j3-180" value="&lt;b&gt;RESULTS&lt;/b&gt;" style="rhombus;whiteSpace=wrap;html=1;" vertex="1" parent="1">
          <mxGeometry x="-3088" y="-172" width="80" height="80" as="geometry" />
        </mxCell>
        <mxCell id="GsQDXdhscdp41sKr75j3-181" style="rounded=0;orthogonalLoop=1;jettySize=auto;html=1;exitX=1;exitY=0.5;exitDx=0;exitDy=0;entryX=0;entryY=0.5;entryDx=0;entryDy=0;" edge="1" parent="1" source="GsQDXdhscdp41sKr75j3-23" target="GsQDXdhscdp41sKr75j3-180">
          <mxGeometry relative="1" as="geometry" />
        </mxCell>
        <mxCell id="GsQDXdhscdp41sKr75j3-183" value="" style="group;rotation=0;" vertex="1" connectable="0" parent="1">
          <mxGeometry x="-1933" y="-259" width="586" height="396" as="geometry" />
        </mxCell>
        <mxCell id="GsQDXdhscdp41sKr75j3-184" value="" style="group;rotation=0;" vertex="1" connectable="0" parent="GsQDXdhscdp41sKr75j3-183">
          <mxGeometry x="29" y="87" width="557" height="308.55837563451774" as="geometry" />
        </mxCell>
        <mxCell id="GsQDXdhscdp41sKr75j3-185" value="SUBJECTS" style="rounded=0;whiteSpace=wrap;html=1;rotation=0;" vertex="1" parent="GsQDXdhscdp41sKr75j3-184">
          <mxGeometry x="-462" y="237" width="120" height="60.304568527918775" as="geometry" />
        </mxCell>
        <mxCell id="GsQDXdhscdp41sKr75j3-206" style="rounded=0;orthogonalLoop=1;jettySize=auto;html=1;exitX=1;exitY=0.5;exitDx=0;exitDy=0;entryX=0.5;entryY=1;entryDx=0;entryDy=0;" edge="1" parent="1" source="GsQDXdhscdp41sKr75j3-204" target="GsQDXdhscdp41sKr75j3-185">
          <mxGeometry relative="1" as="geometry" />
        </mxCell>
        <mxCell id="GsQDXdhscdp41sKr75j3-191" value="elective1" style="ellipse;whiteSpace=wrap;html=1;rotation=0;" vertex="1" parent="1">
          <mxGeometry x="-2158" y="264" width="81" height="49.248730964467" as="geometry" />
        </mxCell>
        <mxCell id="GsQDXdhscdp41sKr75j3-190" style="rounded=0;orthogonalLoop=1;jettySize=auto;html=1;exitX=0;exitY=0.5;exitDx=0;exitDy=0;entryX=0.75;entryY=1;entryDx=0;entryDy=0;" edge="1" parent="1" source="GsQDXdhscdp41sKr75j3-191" target="GsQDXdhscdp41sKr75j3-185">
          <mxGeometry relative="1" as="geometry">
            <mxPoint x="-2095.9999999999463" y="-95.37563451776623" as="sourcePoint" />
          </mxGeometry>
        </mxCell>
        <mxCell id="GsQDXdhscdp41sKr75j3-186" value="&lt;b&gt;&lt;u&gt;course_id&lt;/u&gt;&lt;/b&gt;" style="ellipse;whiteSpace=wrap;html=1;rotation=0;" vertex="1" parent="1">
          <mxGeometry x="-2287" y="314" width="96" height="56.284263959390856" as="geometry" />
        </mxCell>
        <mxCell id="GsQDXdhscdp41sKr75j3-187" style="rounded=0;orthogonalLoop=1;jettySize=auto;html=1;" edge="1" parent="1" source="GsQDXdhscdp41sKr75j3-186" target="GsQDXdhscdp41sKr75j3-185">
          <mxGeometry relative="1" as="geometry">
            <mxPoint x="-2253" y="319" as="sourcePoint" />
          </mxGeometry>
        </mxCell>
        <mxCell id="GsQDXdhscdp41sKr75j3-188" value="semester" style="ellipse;whiteSpace=wrap;html=1;rotation=0;" vertex="1" parent="1">
          <mxGeometry x="-2148" y="175" width="81" height="49.248730964467" as="geometry" />
        </mxCell>
        <mxCell id="GsQDXdhscdp41sKr75j3-189" style="rounded=0;orthogonalLoop=1;jettySize=auto;html=1;exitX=0;exitY=0.5;exitDx=0;exitDy=0;entryX=1;entryY=0.5;entryDx=0;entryDy=0;" edge="1" parent="1" source="GsQDXdhscdp41sKr75j3-188" target="GsQDXdhscdp41sKr75j3-185">
          <mxGeometry relative="1" as="geometry" />
        </mxCell>
        <mxCell id="GsQDXdhscdp41sKr75j3-202" value="&lt;b&gt;&lt;u&gt;student_id&lt;/u&gt;&lt;/b&gt;" style="ellipse;whiteSpace=wrap;html=1;rotation=0;" vertex="1" parent="1">
          <mxGeometry x="-2077" y="106" width="81" height="49.248730964467" as="geometry" />
        </mxCell>
        <mxCell id="GsQDXdhscdp41sKr75j3-203" style="rounded=0;orthogonalLoop=1;jettySize=auto;html=1;exitX=0;exitY=0.5;exitDx=0;exitDy=0;entryX=1;entryY=0.5;entryDx=0;entryDy=0;" edge="1" parent="1" source="GsQDXdhscdp41sKr75j3-202" target="GsQDXdhscdp41sKr75j3-185">
          <mxGeometry relative="1" as="geometry">
            <mxPoint x="-2677" y="145" as="targetPoint" />
          </mxGeometry>
        </mxCell>
        <mxCell id="GsQDXdhscdp41sKr75j3-200" value="subject5" style="ellipse;whiteSpace=wrap;html=1;rotation=0;" vertex="1" parent="1">
          <mxGeometry x="-2075" y="40" width="81" height="49.248730964467" as="geometry" />
        </mxCell>
        <mxCell id="GsQDXdhscdp41sKr75j3-201" style="rounded=0;orthogonalLoop=1;jettySize=auto;html=1;entryX=1;entryY=0.25;entryDx=0;entryDy=0;" edge="1" parent="1" source="GsQDXdhscdp41sKr75j3-200" target="GsQDXdhscdp41sKr75j3-185">
          <mxGeometry relative="1" as="geometry" />
        </mxCell>
        <mxCell id="GsQDXdhscdp41sKr75j3-198" value="subject4" style="ellipse;whiteSpace=wrap;html=1;rotation=0;" vertex="1" parent="1">
          <mxGeometry x="-2093" y="-48" width="81" height="49.248730964467" as="geometry" />
        </mxCell>
        <mxCell id="GsQDXdhscdp41sKr75j3-199" style="rounded=0;orthogonalLoop=1;jettySize=auto;html=1;" edge="1" parent="1" source="GsQDXdhscdp41sKr75j3-198" target="GsQDXdhscdp41sKr75j3-185">
          <mxGeometry relative="1" as="geometry" />
        </mxCell>
        <mxCell id="GsQDXdhscdp41sKr75j3-196" value="subject3" style="ellipse;whiteSpace=wrap;html=1;rotation=0;" vertex="1" parent="1">
          <mxGeometry x="-2156" y="-118" width="81" height="49.248730964467" as="geometry" />
        </mxCell>
        <mxCell id="GsQDXdhscdp41sKr75j3-197" style="rounded=0;orthogonalLoop=1;jettySize=auto;html=1;exitX=0.5;exitY=1;exitDx=0;exitDy=0;" edge="1" parent="1" source="GsQDXdhscdp41sKr75j3-196" target="GsQDXdhscdp41sKr75j3-185">
          <mxGeometry relative="1" as="geometry" />
        </mxCell>
        <mxCell id="GsQDXdhscdp41sKr75j3-194" value="subject2" style="ellipse;whiteSpace=wrap;html=1;rotation=0;" vertex="1" parent="1">
          <mxGeometry x="-2240" y="-184.26" width="81" height="52.26395939086294" as="geometry" />
        </mxCell>
        <mxCell id="GsQDXdhscdp41sKr75j3-195" style="rounded=0;orthogonalLoop=1;jettySize=auto;html=1;entryX=0.5;entryY=0;entryDx=0;entryDy=0;" edge="1" parent="1" source="GsQDXdhscdp41sKr75j3-194" target="GsQDXdhscdp41sKr75j3-185">
          <mxGeometry relative="1" as="geometry" />
        </mxCell>
        <mxCell id="GsQDXdhscdp41sKr75j3-192" value="subject1" style="ellipse;whiteSpace=wrap;html=1;rotation=0;" vertex="1" parent="1">
          <mxGeometry x="-2363" y="-207" width="94" height="58.294416243654815" as="geometry" />
        </mxCell>
        <mxCell id="GsQDXdhscdp41sKr75j3-193" style="rounded=0;orthogonalLoop=1;jettySize=auto;html=1;entryX=0.25;entryY=0;entryDx=0;entryDy=0;" edge="1" parent="1" source="GsQDXdhscdp41sKr75j3-192" target="GsQDXdhscdp41sKr75j3-185">
          <mxGeometry relative="1" as="geometry" />
        </mxCell>
        <mxCell id="GsQDXdhscdp41sKr75j3-208" style="rounded=0;orthogonalLoop=1;jettySize=auto;html=1;exitX=0;exitY=0.5;exitDx=0;exitDy=0;entryX=1;entryY=0.5;entryDx=0;entryDy=0;" edge="1" parent="1" source="GsQDXdhscdp41sKr75j3-185" target="GsQDXdhscdp41sKr75j3-207">
          <mxGeometry relative="1" as="geometry" />
        </mxCell>
        <mxCell id="GsQDXdhscdp41sKr75j3-209" style="rounded=0;orthogonalLoop=1;jettySize=auto;html=1;exitX=1;exitY=1;exitDx=0;exitDy=0;entryX=0;entryY=0.5;entryDx=0;entryDy=0;" edge="1" parent="1" source="GsQDXdhscdp41sKr75j3-161" target="GsQDXdhscdp41sKr75j3-207">
          <mxGeometry relative="1" as="geometry" />
        </mxCell>
        <mxCell id="GsQDXdhscdp41sKr75j3-212" value="&lt;b&gt;1&lt;/b&gt;" style="text;html=1;align=center;verticalAlign=middle;resizable=0;points=[];autosize=1;strokeColor=none;fillColor=none;" vertex="1" parent="1">
          <mxGeometry x="-3946" y="26" width="25" height="26" as="geometry" />
        </mxCell>
        <mxCell id="GsQDXdhscdp41sKr75j3-213" value="&lt;b&gt;*&lt;/b&gt;" style="text;html=1;align=center;verticalAlign=middle;resizable=0;points=[];autosize=1;strokeColor=none;fillColor=none;" vertex="1" parent="1">
          <mxGeometry x="-3758" y="325" width="23" height="26" as="geometry" />
        </mxCell>
        <mxCell id="GsQDXdhscdp41sKr75j3-214" value="&lt;b&gt;1&lt;/b&gt;" style="text;html=1;align=center;verticalAlign=middle;resizable=0;points=[];autosize=1;strokeColor=none;fillColor=none;" vertex="1" parent="1">
          <mxGeometry x="-3384" y="271" width="25" height="26" as="geometry" />
        </mxCell>
        <mxCell id="GsQDXdhscdp41sKr75j3-216" style="rounded=0;orthogonalLoop=1;jettySize=auto;html=1;exitX=0;exitY=0.5;exitDx=0;exitDy=0;entryX=-0.017;entryY=0.937;entryDx=0;entryDy=0;entryPerimeter=0;" edge="1" parent="1" source="GsQDXdhscdp41sKr75j3-129" target="GsQDXdhscdp41sKr75j3-213">
          <mxGeometry relative="1" as="geometry" />
        </mxCell>
        <mxCell id="GsQDXdhscdp41sKr75j3-217" value="&lt;b&gt;1&lt;/b&gt;" style="text;html=1;align=center;verticalAlign=middle;resizable=0;points=[];autosize=1;strokeColor=none;fillColor=none;" vertex="1" parent="1">
          <mxGeometry x="-3681" y="369" width="25" height="26" as="geometry" />
        </mxCell>
        <mxCell id="GsQDXdhscdp41sKr75j3-218" value="&lt;b&gt;1&lt;/b&gt;" style="text;html=1;align=center;verticalAlign=middle;resizable=0;points=[];autosize=1;strokeColor=none;fillColor=none;" vertex="1" parent="1">
          <mxGeometry x="-2755" y="448" width="25" height="26" as="geometry" />
        </mxCell>
        <mxCell id="GsQDXdhscdp41sKr75j3-219" value="&lt;b&gt;1&lt;/b&gt;" style="text;html=1;align=center;verticalAlign=middle;resizable=0;points=[];autosize=1;strokeColor=none;fillColor=none;" vertex="1" parent="1">
          <mxGeometry x="-3228" y="288" width="25" height="26" as="geometry" />
        </mxCell>
        <mxCell id="GsQDXdhscdp41sKr75j3-220" value="&lt;b&gt;*&lt;/b&gt;" style="text;html=1;align=center;verticalAlign=middle;resizable=0;points=[];autosize=1;strokeColor=none;fillColor=none;" vertex="1" parent="1">
          <mxGeometry x="-2767" y="399" width="23" height="26" as="geometry" />
        </mxCell>
        <mxCell id="GsQDXdhscdp41sKr75j3-221" value="&lt;b&gt;1&lt;/b&gt;" style="text;html=1;align=center;verticalAlign=middle;resizable=0;points=[];autosize=1;strokeColor=none;fillColor=none;" vertex="1" parent="1">
          <mxGeometry x="-2605" y="432" width="25" height="26" as="geometry" />
        </mxCell>
        <mxCell id="GsQDXdhscdp41sKr75j3-222" value="&lt;b&gt;*&lt;/b&gt;" style="text;html=1;align=center;verticalAlign=middle;resizable=0;points=[];autosize=1;strokeColor=none;fillColor=none;" vertex="1" parent="1">
          <mxGeometry x="-2344" y="127" width="23" height="26" as="geometry" />
        </mxCell>
        <mxCell id="GsQDXdhscdp41sKr75j3-223" value="&lt;b&gt;1&lt;/b&gt;" style="text;html=1;align=center;verticalAlign=middle;resizable=0;points=[];autosize=1;strokeColor=none;fillColor=none;" vertex="1" parent="1">
          <mxGeometry x="-3232" y="248" width="25" height="26" as="geometry" />
        </mxCell>
        <mxCell id="GsQDXdhscdp41sKr75j3-224" value="&lt;b&gt;*&lt;/b&gt;" style="text;html=1;align=center;verticalAlign=middle;resizable=0;points=[];autosize=1;strokeColor=none;fillColor=none;" vertex="1" parent="1">
          <mxGeometry x="-2902" y="91" width="23" height="26" as="geometry" />
        </mxCell>
        <mxCell id="GsQDXdhscdp41sKr75j3-225" value="&lt;b&gt;1&lt;/b&gt;" style="text;html=1;align=center;verticalAlign=middle;resizable=0;points=[];autosize=1;strokeColor=none;fillColor=none;" vertex="1" parent="1">
          <mxGeometry x="-3330" y="-84" width="25" height="26" as="geometry" />
        </mxCell>
        <mxCell id="GsQDXdhscdp41sKr75j3-228" value="&lt;b&gt;*&lt;/b&gt;" style="text;html=1;align=center;verticalAlign=middle;resizable=0;points=[];autosize=1;strokeColor=none;fillColor=none;" vertex="1" parent="1">
          <mxGeometry x="-2843" y="-236" width="23" height="26" as="geometry" />
        </mxCell>
        <mxCell id="GsQDXdhscdp41sKr75j3-229" value="&lt;b&gt;1&lt;/b&gt;" style="text;html=1;align=center;verticalAlign=middle;resizable=0;points=[];autosize=1;strokeColor=none;fillColor=none;" vertex="1" parent="1">
          <mxGeometry x="-2650" y="-222" width="25" height="26" as="geometry" />
        </mxCell>
        <mxCell id="GsQDXdhscdp41sKr75j3-230" value="&lt;b&gt;1&lt;/b&gt;" style="text;html=1;align=center;verticalAlign=middle;resizable=0;points=[];autosize=1;strokeColor=none;fillColor=none;" vertex="1" parent="1">
          <mxGeometry x="-2392" y="22" width="25" height="26" as="geometry" />
        </mxCell>
        <mxCell id="GsQDXdhscdp41sKr75j3-231" value="&lt;b&gt;&lt;font style=&quot;font-size: 14px;&quot;&gt;1&lt;/font&gt;&lt;/b&gt;" style="text;html=1;align=center;verticalAlign=middle;resizable=0;points=[];autosize=1;strokeColor=none;fillColor=none;" vertex="1" parent="1">
          <mxGeometry x="-864" y="105" width="26" height="29" as="geometry" />
        </mxCell>
        <mxCell id="GsQDXdhscdp41sKr75j3-232" value="&lt;span style=&quot;font-weight: normal;&quot;&gt;&lt;font style=&quot;font-size: 24px;&quot;&gt;*&lt;/font&gt;&lt;/span&gt;" style="text;html=1;align=center;verticalAlign=middle;resizable=0;points=[];autosize=1;strokeColor=none;fillColor=none;fontStyle=1" vertex="1" parent="1">
          <mxGeometry x="-651" y="65" width="27" height="41" as="geometry" />
        </mxCell>
        <mxCell id="GsQDXdhscdp41sKr75j3-233" value="&lt;font style=&quot;font-size: 14px;&quot;&gt;&lt;b&gt;1&lt;/b&gt;&lt;/font&gt;" style="text;html=1;align=center;verticalAlign=middle;resizable=0;points=[];autosize=1;strokeColor=none;fillColor=none;" vertex="1" parent="1">
          <mxGeometry x="-865" y="165" width="26" height="29" as="geometry" />
        </mxCell>
        <mxCell id="GsQDXdhscdp41sKr75j3-234" value="&lt;font style=&quot;font-size: 14px;&quot;&gt;&lt;b&gt;1&lt;/b&gt;&lt;/font&gt;" style="text;html=1;align=center;verticalAlign=middle;resizable=0;points=[];autosize=1;strokeColor=none;fillColor=none;" vertex="1" parent="1">
          <mxGeometry x="-783" y="285" width="26" height="29" as="geometry" />
        </mxCell>
        <mxCell id="GsQDXdhscdp41sKr75j3-235" value="&lt;font style=&quot;font-size: 24px;&quot;&gt;*&lt;/font&gt;" style="text;html=1;align=center;verticalAlign=middle;resizable=0;points=[];autosize=1;strokeColor=none;fillColor=none;" vertex="1" parent="1">
          <mxGeometry x="-840" y="477" width="27" height="41" as="geometry" />
        </mxCell>
        <mxCell id="GsQDXdhscdp41sKr75j3-236" value="&lt;font style=&quot;font-size: 14px;&quot;&gt;&lt;b&gt;1&lt;/b&gt;&lt;/font&gt;" style="text;html=1;align=center;verticalAlign=middle;resizable=0;points=[];autosize=1;strokeColor=none;fillColor=none;" vertex="1" parent="1">
          <mxGeometry x="-882" y="572" width="26" height="29" as="geometry" />
        </mxCell>
        <mxCell id="GsQDXdhscdp41sKr75j3-237" value="&lt;font style=&quot;font-size: 14px;&quot;&gt;&lt;b&gt;1&lt;/b&gt;&lt;/font&gt;" style="text;html=1;align=center;verticalAlign=middle;resizable=0;points=[];autosize=1;strokeColor=none;fillColor=none;" vertex="1" parent="1">
          <mxGeometry x="-589" y="489" width="26" height="29" as="geometry" />
        </mxCell>
        <mxCell id="GsQDXdhscdp41sKr75j3-238" value="&lt;font style=&quot;font-size: 14px;&quot;&gt;&lt;b&gt;1&lt;/b&gt;&lt;/font&gt;" style="text;html=1;align=center;verticalAlign=middle;resizable=0;points=[];autosize=1;strokeColor=none;fillColor=none;" vertex="1" parent="1">
          <mxGeometry x="-584" y="451" width="26" height="29" as="geometry" />
        </mxCell>
        <mxCell id="GsQDXdhscdp41sKr75j3-239" value="&lt;font style=&quot;font-size: 24px;&quot;&gt;&lt;b&gt;*&lt;/b&gt;&lt;/font&gt;" style="text;html=1;align=center;verticalAlign=middle;resizable=0;points=[];autosize=1;strokeColor=none;fillColor=none;" vertex="1" parent="1">
          <mxGeometry x="-652" y="382" width="27" height="41" as="geometry" />
        </mxCell>
        <mxCell id="GsQDXdhscdp41sKr75j3-240" value="&lt;font style=&quot;font-size: 14px;&quot;&gt;&lt;b&gt;1&lt;/b&gt;&lt;/font&gt;" style="text;html=1;align=center;verticalAlign=middle;resizable=0;points=[];autosize=1;strokeColor=none;fillColor=none;" vertex="1" parent="1">
          <mxGeometry x="-470" y="383" width="26" height="29" as="geometry" />
        </mxCell>
        <mxCell id="GsQDXdhscdp41sKr75j3-241" value="&lt;font style=&quot;font-size: 24px;&quot;&gt;&lt;b&gt;*&lt;/b&gt;&lt;/font&gt;" style="text;html=1;align=center;verticalAlign=middle;resizable=0;points=[];autosize=1;strokeColor=none;fillColor=none;" vertex="1" parent="1">
          <mxGeometry x="-355" y="301" width="27" height="41" as="geometry" />
        </mxCell>
        <mxCell id="GsQDXdhscdp41sKr75j3-242" value="&lt;font style=&quot;font-size: 14px;&quot;&gt;&lt;b&gt;1&lt;/b&gt;&lt;/font&gt;" style="text;html=1;align=center;verticalAlign=middle;resizable=0;points=[];autosize=1;strokeColor=none;fillColor=none;" vertex="1" parent="1">
          <mxGeometry x="-280" y="309" width="26" height="29" as="geometry" />
        </mxCell>
        <mxCell id="GsQDXdhscdp41sKr75j3-243" value="&lt;font style=&quot;font-size: 14px;&quot;&gt;&lt;b&gt;1&lt;/b&gt;&lt;/font&gt;" style="text;html=1;align=center;verticalAlign=middle;resizable=0;points=[];autosize=1;strokeColor=none;fillColor=none;" vertex="1" parent="1">
          <mxGeometry x="-438" y="203" width="26" height="29" as="geometry" />
        </mxCell>
        <mxCell id="GsQDXdhscdp41sKr75j3-244" value="&lt;font style=&quot;font-size: 24px;&quot;&gt;&lt;b&gt;*&lt;/b&gt;&lt;/font&gt;" style="text;html=1;align=center;verticalAlign=middle;resizable=0;points=[];autosize=1;strokeColor=none;fillColor=none;" vertex="1" parent="1">
          <mxGeometry x="-580" y="279" width="27" height="41" as="geometry" />
        </mxCell>
        <mxCell id="GsQDXdhscdp41sKr75j3-245" value="&lt;font style=&quot;font-size: 14px;&quot;&gt;&lt;b&gt;1&lt;/b&gt;&lt;/font&gt;" style="text;html=1;align=center;verticalAlign=middle;resizable=0;points=[];autosize=1;strokeColor=none;fillColor=none;" vertex="1" parent="1">
          <mxGeometry x="-370" y="94" width="26" height="29" as="geometry" />
        </mxCell>
        <mxCell id="GsQDXdhscdp41sKr75j3-246" value="&lt;font style=&quot;font-size: 24px;&quot;&gt;&lt;b&gt;*&lt;/b&gt;&lt;/font&gt;" style="text;html=1;align=center;verticalAlign=middle;resizable=0;points=[];autosize=1;strokeColor=none;fillColor=none;" vertex="1" parent="1">
          <mxGeometry x="-459" y="-24" width="27" height="41" as="geometry" />
        </mxCell>
        <mxCell id="GsQDXdhscdp41sKr75j3-247" value="&lt;font style=&quot;font-size: 14px;&quot;&gt;&lt;b&gt;1&lt;/b&gt;&lt;/font&gt;" style="text;html=1;align=center;verticalAlign=middle;resizable=0;points=[];autosize=1;strokeColor=none;fillColor=none;" vertex="1" parent="1">
          <mxGeometry x="-286" y="93" width="26" height="29" as="geometry" />
        </mxCell>
        <mxCell id="GsQDXdhscdp41sKr75j3-248" value="&lt;font style=&quot;font-size: 24px;&quot;&gt;&lt;b&gt;*&lt;/b&gt;&lt;/font&gt;" style="text;html=1;align=center;verticalAlign=middle;resizable=0;points=[];autosize=1;strokeColor=none;fillColor=none;" vertex="1" parent="1">
          <mxGeometry x="-665" y="-125" width="27" height="41" as="geometry" />
        </mxCell>
      </root>
    </mxGraphModel>
  </diagram>
</mxfile>
